ply
format ascii 1.0
comment VTK generated PLY File
obj_info vtkPolyData points and polygons: vtk4.0
element vertex 642
property float x
property float y
property float z
element face 1280
property list uchar int vertex_indices
end_header
0 0 -25 
2.41176 -1.75223 -24.8216 
-0.921193 -2.83519 -24.8216 
18.0902 -13.1431 -11.1805 
16.8825 -12.2657 -13.7671 
19.2943 -10.5135 -11.9247 
-2.98112 0 -24.8216 
-0.921193 2.83519 -24.8216 
2.41176 1.75223 -24.8216 
19.8637 -12.2657 -8.94352 
-6.9097 -21.2662 -11.1805 
-4.03663 -21.5988 -11.9247 
-5.52722 -22.6818 -8.94353 
-22.3607 0 -11.1804 
-21.7891 -2.8352 -11.9246 
-23.2797 -1.75223 -8.94345 
-6.9097 21.2662 -11.1805 
-9.42958 19.8465 -11.9247 
-8.86023 21.5988 -8.94354 
18.0902 13.1431 -11.1805 
15.9613 15.1009 -11.9247 
17.8038 15.101 -8.94353 
17.8038 -15.101 -8.94353 
-8.86023 -21.5988 -8.94354 
-23.2797 1.75223 -8.94345 
-5.52722 22.6818 -8.94353 
19.8637 12.2657 -8.94351 
6.9097 -21.2662 11.1805 
9.42958 -19.8465 11.9247 
6.44841 -19.8465 13.7671 
-18.0902 -13.1431 11.1805 
-15.9613 -15.1009 11.9247 
-16.8825 -12.2657 13.7671 
-18.0902 13.1431 11.1805 
-19.2943 10.5135 11.9247 
-16.8825 12.2657 13.7671 
6.9097 21.2662 11.1805 
4.03663 21.5988 11.9247 
6.44841 19.8465 13.7671 
22.3607 0 11.1804 
21.7891 2.8352 11.9246 
20.8679 0 13.767 
2.98112 0 24.8216 
0.921193 2.83519 24.8216 
0 0 25 
6.27867 0 24.1987 
4.15494 3.01873 24.4668 
9.74183 0 23.0238 
7.67918 3.16295 23.5802 
13.1432 0 21.2663 
11.2844 3.24327 22.0713 
16.2364 0 19.01 
14.6946 3.24327 19.9637 
18.836 0 16.4379 
17.6564 3.16297 17.4139 
20.0255 3.01876 14.6583 
1.94017 5.97132 24.1987 
5.38112 6.32589 23.5802 
3.01032 9.26496 23.0239 
9.04501 6.57158 22.3607 
6.57155 9.7298 22.0714 
4.06139 12.4999 21.2664 
12.6682 6.66007 20.4978 
10.2488 9.9901 20.4978 
7.62534 12.9731 19.9638 
5.01721 15.4417 19.0101 
15.9548 6.5716 18.0903 
13.7502 9.99012 18.3338 
11.1802 13.1432 18.0903 
8.46421 15.8148 17.414 
5.82054 17.9141 16.438 
18.6841 6.32594 15.3585 
16.8022 9.72986 15.7486 
14.4458 12.9731 15.7486 
11.79 15.8149 15.3586 
9.05914 18.1126 14.6584 
20.7763 5.97133 12.5575 
19.2468 9.26499 12.9893 
17.2047 12.4999 13.1434 
14.7591 15.4417 12.9893 
12.0993 17.9141 12.5575 
9.42958 19.8465 11.9247 
-2.41176 1.75223 24.8216 
-1.58707 4.88439 24.4668 
-0.635199 8.28068 23.5802 
0.402454 11.7342 22.0714 
1.45624 14.9775 19.9638 
2.44787 17.7696 17.414 
3.31711 19.9782 14.6584 
-5.07952 3.69045 24.1987 
-4.35346 7.07253 23.5802 
-7.88127 5.72601 23.0239 
-3.45493 10.633 22.3607 
-7.2229 9.25655 22.0714 
-10.6331 7.72529 21.2664 
-2.41948 14.1062 20.4978 
-6.33415 12.8342 20.4978 
-9.98181 11.261 19.9638 
-13.1355 9.54338 19.0101 
-1.31974 17.2046 18.0903 
-5.25219 16.1643 18.3339 
-9.04509 14.6945 18.0903 
-12.4252 12.937 17.414 
-15.2387 11.0714 16.438 
-0.242711 19.7245 15.3586 
-4.06157 18.9865 15.7486 
-7.87427 17.7476 15.7486 
-11.3976 16.1 15.3586 
-14.4267 14.2128 14.6584 
0.740982 21.6046 12.5575 
-2.8641 21.1678 12.9893 
-6.57172 20.2253 13.1434 
-10.1252 18.8085 12.9893 
-13.2985 17.0428 12.5575 
-15.9613 15.1009 11.9247 
-2.41176 -1.75223 24.8216 
-5.13579 0 24.4668 
-8.07171 1.95479 23.5802 
-11.0356 4.00886 22.0714 
-13.7945 6.0133 19.9638 
-16.1435 7.8192 17.414 
-17.9754 9.32838 14.6583 
-5.07952 -3.69045 24.1987 
-8.07171 -1.95479 23.5802 
-7.88127 -5.72601 23.0239 
-11.1802 0 22.3607 
-11.0356 -4.00886 22.0714 
-10.6331 -7.72529 21.2664 
-14.1635 2.05805 20.4978 
-14.1635 -2.05805 20.4978 
-13.7945 -6.0133 19.9638 
-13.1355 -9.54338 19.0101 
-16.7704 4.06143 18.0903 
-16.9962 0 18.3338 
-16.7704 -4.06143 18.0903 
-16.1435 -7.8192 17.414 
-15.2387 -11.0714 16.438 
-18.8341 5.8644 15.3586 
-19.3123 2.00444 15.7486 
-19.3123 -2.00444 15.7486 
-18.8341 -5.8644 15.3586 
-17.9754 -9.32838 14.6583 
-20.3182 7.38094 12.5575 
-21.0168 3.81736 12.9893 
-21.2662 0 13.1434 
-21.0168 -3.81736 12.9893 
-20.3182 -7.38094 12.5575 
-19.2943 -10.5135 11.9247 
0.921193 -2.83519 24.8216 
-1.58707 -4.88439 24.4668 
-4.35346 -7.07253 23.5802 
-7.2229 -9.25655 22.0714 
-9.98181 -11.261 19.9638 
-12.4252 -12.937 17.414 
-14.4267 -14.2128 14.6584 
1.94017 -5.97132 24.1987 
-0.635199 -8.28068 23.5802 
3.01032 -9.26496 23.0239 
-3.45493 -10.633 22.3607 
0.402454 -11.7342 22.0714 
4.06139 -12.4999 21.2664 
-6.33415 -12.8342 20.4978 
-2.41948 -14.1062 20.4978 
1.45624 -14.9775 19.9638 
5.01721 -15.4417 19.0101 
-9.04509 -14.6945 18.0903 
-5.25219 -16.1643 18.3339 
-1.31974 -17.2046 18.0903 
2.44787 -17.7696 17.414 
5.82054 -17.9141 16.438 
-11.3976 -16.1 15.3586 
-7.87427 -17.7476 15.7486 
-4.06157 -18.9865 15.7486 
-0.24271 -19.7245 15.3586 
3.31711 -19.9782 14.6584 
-13.2985 -17.0428 12.5575 
-10.1252 -18.8085 12.9893 
-6.57172 -20.2253 13.1434 
-2.8641 -21.1678 12.9893 
0.740981 -21.6046 12.5575 
4.03663 -21.5988 11.9247 
4.15494 -3.01873 24.4668 
5.38112 -6.32589 23.5802 
6.57155 -9.7298 22.0714 
7.62534 -12.9731 19.9638 
8.46421 -15.8148 17.414 
9.05914 -18.1126 14.6584 
7.67918 -3.16295 23.5802 
9.04501 -6.57157 22.3607 
11.2844 -3.24327 22.0713 
10.2488 -9.9901 20.4978 
12.6682 -6.66007 20.4978 
14.6946 -3.24327 19.9637 
11.1802 -13.1432 18.0903 
13.7502 -9.99012 18.3338 
15.9548 -6.5716 18.0903 
17.6564 -3.16297 17.4139 
11.79 -15.8149 15.3586 
14.4458 -12.9731 15.7486 
16.8022 -9.72986 15.7486 
18.6841 -6.32594 15.3585 
20.0255 -3.01876 14.6583 
12.0993 -17.9141 12.5575 
14.7591 -15.4417 12.9893 
17.2047 -12.4999 13.1434 
19.2468 -9.26499 12.9893 
20.7763 -5.97133 12.5575 
21.7891 -2.8352 11.9246 
23.2797 1.75223 8.94345 
23.9156 3.69046 6.27874 
22.5935 4.88441 9.52243 
24.1178 5.72603 3.24731 
23.0377 7.07256 6.65157 
23.7764 7.72532 0 
22.9714 9.25661 3.41024 
22.8775 9.54342 -3.24732 
22.3201 11.2611 -1e-06 
21.5174 11.0714 -6.27877 
21.1323 12.937 -3.3258 
19.5625 14.2129 -6.34834 
21.3748 8.28072 9.97736 
21.5451 10.633 6.9099 
19.5612 11.7343 10.2307 
21.1665 12.8343 3.50148 
19.4158 14.1063 7.00295 
17.2048 14.9776 10.2307 
20.2255 14.6946 0 
18.7471 16.1644 3.50149 
16.7705 17.2047 6.90993 
14.4806 17.7697 9.97741 
18.8342 16.1 -3.32581 
17.6073 17.7477 3e-06 
15.9022 18.9866 3.41027 
13.8455 19.7246 6.65163 
11.6271 19.9783 9.52251 
17.179 17.0429 -6.2788 
16.146 18.8086 -3.24735 
14.6946 20.2254 -0 
12.8986 21.1679 3.24735 
10.9002 21.6047 6.2788 
8.86023 21.5988 8.94354 
5.52722 22.6818 8.94353 
3.88038 23.8855 6.27879 
2.33628 22.997 9.5225 
2.0069 24.7068 3.24734 
0.392495 24.0957 6.65161 
0 25 0 
-1.70512 24.7075 3.41025 
-2.0069 24.7068 -3.24734 
-3.81271 24.7076 -9e-06 
-3.88038 23.8855 -6.27879 
-5.7737 24.0957 -3.32582 
-7.47213 22.9971 -6.34835 
-1.27041 22.8875 9.97741 
-3.45496 23.7764 6.90993 
-5.11538 22.2298 10.2308 
-5.66545 24.0965 3.50148 
-7.41619 22.8245 7.00296 
-8.92809 20.991 10.2308 
-7.72541 23.7764 -1.1e-05 
-9.58017 22.8246 3.50148 
-11.1804 21.2662 6.90993 
-12.4253 19.263 9.97741 
-9.49201 22.8876 -3.32582 
-11.4382 22.2299 -1e-05 
-13.1433 20.991 3.41026 
-14.4807 19.263 6.65162 
-15.4075 17.2316 9.5225 
-10.9002 21.6047 -6.2788 
-12.8986 21.1679 -3.24735 
-14.6946 20.2254 -0 
-16.146 18.8086 3.24735 
-17.179 17.0429 6.2788 
-17.8038 15.101 8.94353 
-19.8637 12.2657 8.94352 
-21.5174 11.0714 6.27877 
-21.1496 9.32839 9.52247 
-22.8775 9.54342 3.24732 
-22.7951 7.81922 6.65158 
-23.7764 7.72532 0 
-24.0252 6.01332 3.41024 
-24.1178 5.72603 -3.24731 
-24.6765 4.00887 2e-06 
-23.9156 3.69046 -6.27874 
-24.7006 1.95479 -3.32577 
-24.1806 -1e-05 -6.34827 
-22.1599 5.86441 9.97737 
-23.6803 4.06144 6.9099 
-22.7226 2.00444 10.2307 
-24.6679 2.05806 3.50147 
-23.9991 -2e-06 7.00293 
-22.7226 -2.00444 10.2307 
-25 -9e-06 1.6e-05 
-24.6679 -2.05807 3.50148 
-23.6803 -4.06145 6.90991 
-22.1599 -5.86442 9.97738 
-24.7006 -1.95482 -3.32575 
-24.6765 -4.0089 3.6e-05 
-24.0252 -6.01334 3.41027 
-22.7951 -7.81924 6.65162 
-21.1495 -9.3284 9.52249 
-23.9156 -3.69046 -6.27874 
-24.1178 -5.72603 -3.24731 
-23.7764 -7.72532 -0 
-22.8775 -9.54342 3.24732 
-21.5174 -11.0714 6.27877 
-19.8637 -12.2657 8.94351 
-17.8038 -15.101 8.94353 
-17.179 -17.0429 6.2788 
-15.4076 -17.2316 9.5225 
-16.146 -18.8086 3.24735 
-14.4807 -19.263 6.65161 
-14.6946 -20.2254 0 
-13.1433 -20.991 3.41025 
-12.8986 -21.1679 -3.24735 
-11.4382 -22.2299 -1.6e-05 
-10.9002 -21.6047 -6.2788 
-9.49202 -22.8876 -3.32583 
-7.47214 -22.9971 -6.34835 
-12.4253 -19.263 9.9774 
-11.1804 -21.2662 6.90992 
-8.9281 -20.991 10.2307 
-9.58019 -22.8245 3.50147 
-7.41621 -22.8245 7.00295 
-5.11539 -22.2298 10.2307 
-7.72543 -23.7764 -2e-05 
-5.66547 -24.0965 3.50147 
-3.45498 -23.7764 6.90992 
-1.27042 -22.8875 9.9774 
-5.77371 -24.0957 -3.32582 
-3.81273 -24.7076 -1.4e-05 
-1.70514 -24.7075 3.41025 
0.392484 -24.0957 6.65161 
2.33627 -22.997 9.5225 
-3.88038 -23.8855 -6.27879 
-2.0069 -24.7068 -3.24734 
-0 -25 -0 
2.0069 -24.7068 3.24734 
3.88038 -23.8855 6.27879 
5.52722 -22.6818 8.94353 
8.86023 -21.5988 8.94354 
10.9002 -21.6047 6.2788 
11.6271 -19.9783 9.5225 
12.8986 -21.1679 3.24735 
13.8455 -19.7246 6.65161 
14.6946 -20.2254 0 
15.9022 -18.9866 3.41024 
16.146 -18.8086 -3.24735 
17.6073 -17.7477 -2.7e-05 
17.179 -17.0429 -6.2788 
18.8342 -16.1001 -3.32584 
19.5625 -14.2129 -6.34836 
14.4806 -17.7697 9.9774 
16.7705 -17.2047 6.9099 
17.2048 -14.9776 10.2307 
18.747 -16.1644 3.50144 
19.4157 -14.1063 7.00291 
19.5612 -11.7343 10.2307 
20.2255 -14.6946 -4.8e-05 
21.1665 -12.8343 3.50142 
21.5451 -10.6331 6.90986 
21.3748 -8.28074 9.97733 
21.1322 -12.9371 -3.32585 
22.3201 -11.2611 -5.7e-05 
22.9714 -9.25664 3.41019 
23.0377 -7.07259 6.65153 
22.5935 -4.88443 9.52241 
21.5174 -11.0714 -6.27877 
22.8775 -9.54342 -3.24732 
23.7764 -7.72532 -0 
24.1178 -5.72603 3.24731 
23.9156 -3.69046 6.27874 
23.2797 -1.75223 8.94345 
7.47214 22.9971 6.34835 
9.49202 22.8876 3.32581 
11.4382 22.2299 -0 
13.1433 20.991 -3.41027 
14.4807 19.263 -6.65163 
15.4075 17.2316 -9.52251 
5.77371 24.0957 3.32581 
7.72543 23.7764 -0 
3.81273 24.7076 0 
9.58019 22.8245 -3.50149 
5.66547 24.0965 -3.50149 
1.70514 24.7075 -3.41026 
11.1804 21.2662 -6.90994 
7.41621 22.8245 -7.00297 
3.45498 23.7764 -6.90994 
-0.392486 24.0957 -6.65162 
12.4253 19.263 -9.97742 
8.9281 20.991 -10.2308 
5.11539 22.2298 -10.2308 
1.27041 22.8875 -9.97741 
-2.33627 22.997 -9.5225 
13.2985 17.0428 -12.5575 
10.1252 18.8085 -12.9893 
6.57172 20.2253 -13.1434 
2.8641 21.1678 -12.9893 
-0.740981 21.6046 -12.5575 
-4.03663 21.5988 -11.9247 
-19.5625 14.2129 6.34834 
-18.8342 16.1001 3.32581 
-17.6073 17.7477 -0 
-15.9022 18.9866 -3.41026 
-13.8455 19.7246 -6.65162 
-11.6271 19.9783 -9.5225 
-21.1322 12.937 3.3258 
-20.2255 14.6946 -0 
-22.3201 11.2611 0 
-18.747 16.1644 -3.50149 
-21.1665 12.8343 -3.50148 
-22.9714 9.25663 -3.41024 
-16.7705 17.2048 -6.90993 
-19.4157 14.1063 -7.00295 
-21.5451 10.6331 -6.90991 
-23.0377 7.07259 -6.65158 
-14.4806 17.7697 -9.97741 
-17.2047 14.9776 -10.2307 
-19.5611 11.7343 -10.2307 
-21.3748 8.28077 -9.97736 
-22.5935 4.88444 -9.52244 
-12.0993 17.9141 -12.5575 
-14.7591 15.4417 -12.9893 
-17.2047 12.4999 -13.1434 
-19.2468 9.26499 -12.9893 
-20.7763 5.97133 -12.5575 
-21.7891 2.8352 -11.9246 
-19.5625 -14.2129 6.34834 
-21.1322 -12.937 3.3258 
-22.3201 -11.2611 -0 
-22.9714 -9.25663 -3.41024 
-23.0377 -7.07259 -6.65158 
-22.5935 -4.88444 -9.52244 
-18.8342 -16.1001 3.32581 
-20.2255 -14.6946 0 
-17.6073 -17.7477 0 
-21.1665 -12.8343 -3.50148 
-18.747 -16.1644 -3.50148 
-15.9022 -18.9866 -3.41026 
-21.5451 -10.6331 -6.90991 
-19.4157 -14.1063 -7.00295 
-16.7705 -17.2048 -6.90993 
-13.8455 -19.7246 -6.65162 
-21.3748 -8.28077 -9.97736 
-19.5611 -11.7343 -10.2307 
-17.2047 -14.9776 -10.2307 
-14.4806 -17.7697 -9.97741 
-11.6271 -19.9783 -9.5225 
-20.7763 -5.97133 -12.5575 
-19.2468 -9.26499 -12.9893 
-17.2047 -12.4999 -13.1434 
-14.7591 -15.4417 -12.9893 
-12.0993 -17.9141 -12.5575 
-9.42958 -19.8465 -11.9247 
7.47214 -22.9971 6.34835 
5.77371 -24.0957 3.32581 
3.81273 -24.7076 -0 
1.70514 -24.7075 -3.41026 
-0.392486 -24.0957 -6.65162 
-2.33627 -22.997 -9.5225 
9.49202 -22.8876 3.32581 
7.72543 -23.7764 0 
11.4382 -22.2299 0 
5.66547 -24.0965 -3.50149 
9.58019 -22.8245 -3.50149 
13.1433 -20.991 -3.41026 
3.45498 -23.7764 -6.90994 
7.41621 -22.8245 -7.00297 
11.1804 -21.2662 -6.90994 
14.4807 -19.263 -6.65163 
1.27041 -22.8875 -9.97741 
5.11538 -22.2298 -10.2308 
8.92809 -20.991 -10.2308 
12.4253 -19.263 -9.97742 
15.4075 -17.2316 -9.52251 
-0.740982 -21.6046 -12.5575 
2.8641 -21.1678 -12.9893 
6.57172 -20.2253 -13.1434 
10.1252 -18.8085 -12.9893 
13.2985 -17.0428 -12.5575 
15.9613 -15.1009 -11.9247 
24.1806 0 6.34829 
24.7006 -1.9548 3.32578 
24.6765 -4.00888 -0 
24.0252 -6.01332 -3.41024 
22.7951 -7.81922 -6.65159 
21.1496 -9.32839 -9.52248 
24.7006 1.9548 3.32578 
25 0 0 
24.6765 4.00888 0 
24.6679 -2.05806 -3.50146 
24.6679 2.05806 -3.50146 
24.0252 6.01332 -3.41024 
23.6803 -4.06144 -6.9099 
23.9991 1e-06 -7.00293 
23.6803 4.06144 -6.9099 
22.7951 7.81922 -6.65159 
22.1599 -5.86441 -9.97737 
22.7226 -2.00444 -10.2307 
22.7226 2.00444 -10.2307 
22.1599 5.86441 -9.97737 
21.1496 9.32839 -9.52248 
20.3182 -7.38094 -12.5575 
21.0168 -3.81736 -12.9893 
21.2662 -0 -13.1434 
21.0168 3.81736 -12.9893 
20.3182 7.38094 -12.5575 
19.2943 10.5135 -11.9247 
16.8825 12.2657 -13.7671 
15.2387 11.0714 -16.438 
14.4267 14.2128 -14.6584 
13.1355 9.54338 -19.0101 
12.4252 12.937 -17.414 
10.6331 7.72529 -21.2664 
9.98181 11.261 -19.9638 
7.88127 5.72601 -23.0239 
7.2229 9.25658 -22.0714 
5.07952 3.69045 -24.1987 
4.35345 7.07256 -23.5802 
1.58706 4.88442 -24.4668 
11.3976 16.1 -15.3586 
9.04509 14.6945 -18.0903 
7.87426 17.7476 -15.7486 
6.33415 12.8343 -20.4978 
5.25218 16.1643 -18.3338 
4.06157 18.9865 -15.7486 
3.45492 10.633 -22.3607 
2.41947 14.1062 -20.4978 
1.31973 17.2047 -18.0903 
0.242707 19.7245 -15.3586 
0.635185 8.28074 -23.5802 
-0.402472 11.7343 -22.0714 
-1.45626 14.9776 -19.9638 
-2.44789 17.7697 -17.414 
-3.31711 19.9782 -14.6583 
-1.94017 5.97132 -24.1987 
-3.01032 9.26496 -23.0239 
-4.06139 12.4999 -21.2664 
-5.01721 15.4417 -19.0101 
-5.82054 17.9141 -16.438 
-6.44841 19.8465 -13.7671 
-9.05916 18.1125 -14.6584 
-8.46423 15.8148 -17.414 
-7.62536 12.9731 -19.9638 
-6.57156 9.72979 -22.0714 
-5.38113 6.32589 -23.5802 
-4.15495 3.01873 -24.4668 
-11.79 15.8148 -15.3586 
-11.1803 13.1432 -18.0903 
-14.4458 12.9731 -15.7486 
-10.2488 9.99008 -20.4978 
-13.7502 9.99009 -18.3338 
-16.8022 9.72981 -15.7485 
-9.04503 6.57156 -22.3607 
-12.6682 6.66005 -20.4978 
-15.9549 6.57157 -18.0902 
-18.6842 6.3259 -15.3585 
-7.67919 3.16294 -23.5802 
-11.2844 3.24326 -22.0713 
-14.6946 3.24326 -19.9637 
-17.6565 3.16295 -17.4139 
-20.0256 3.01874 -14.6583 
-6.27867 0 -24.1987 
-9.74183 0 -23.0238 
-13.1432 0 -21.2663 
-16.2364 0 -19.01 
-18.836 0 -16.4379 
-20.8679 0 -13.767 
-20.0255 -3.01874 -14.6583 
-17.6565 -3.16296 -17.4139 
-14.6946 -3.24328 -19.9637 
-11.2844 -3.24328 -22.0713 
-7.67919 -3.16297 -23.5802 
-4.15495 -3.01876 -24.4668 
-18.6842 -6.32591 -15.3585 
-15.9549 -6.57159 -18.0902 
-16.8022 -9.72983 -15.7485 
-12.6682 -6.66008 -20.4978 
-13.7502 -9.99012 -18.3338 
-14.4458 -12.9731 -15.7486 
-9.04503 -6.57161 -22.3607 
-10.2488 -9.99013 -20.4978 
-11.1803 -13.1432 -18.0903 
-11.79 -15.8148 -15.3586 
-5.38114 -6.32594 -23.5802 
-6.57157 -9.72985 -22.0714 
-7.62537 -12.9731 -19.9638 
-8.46424 -15.8149 -17.414 
-9.05917 -18.1126 -14.6583 
-1.94017 -5.97132 -24.1987 
-3.01032 -9.26496 -23.0239 
-4.06139 -12.4999 -21.2664 
-5.01721 -15.4417 -19.0101 
-5.82054 -17.9141 -16.438 
-6.44841 -19.8465 -13.7671 
17.9754 9.32838 -14.6583 
18.8341 5.8644 -15.3586 
19.3123 2.00443 -15.7486 
19.3123 -2.00444 -15.7485 
18.8341 -5.86441 -15.3586 
17.9754 -9.32839 -14.6583 
16.1435 7.8192 -17.414 
16.7704 4.06142 -18.0903 
13.7945 6.01329 -19.9638 
16.9962 -1.2e-05 -18.3338 
14.1635 2.05804 -20.4978 
11.0356 4.00885 -22.0714 
16.7704 -4.06144 -18.0902 
14.1635 -2.05807 -20.4978 
11.1803 -1.8e-05 -22.3607 
8.07173 1.95478 -23.5802 
16.1435 -7.81922 -17.414 
13.7945 -6.01333 -19.9637 
11.0356 -4.00889 -22.0713 
8.07175 -1.95482 -23.5802 
5.13581 -1.4e-05 -24.4668 
15.2387 -11.0714 -16.438 
13.1355 -9.54338 -19.0101 
10.6331 -7.72529 -21.2664 
7.88127 -5.72601 -23.0239 
5.07952 -3.69045 -24.1987 
-3.3171 -19.9782 -14.6584 
-2.44786 -17.7696 -17.414 
-1.45623 -14.9775 -19.9638 
-0.402436 -11.7342 -22.0714 
0.63522 -8.2807 -23.5802 
1.58709 -4.88441 -24.4668 
0.242722 -19.7245 -15.3586 
1.31976 -17.2046 -18.0903 
4.06159 -18.9865 -15.7486 
2.41951 -14.1062 -20.4978 
5.25222 -16.1643 -18.3338 
7.87429 -17.7476 -15.7486 
3.45497 -10.633 -22.3607 
6.33419 -12.8342 -20.4978 
9.04513 -14.6945 -18.0903 
11.3976 -16.1 -15.3586 
4.3535 -7.07256 -23.5802 
7.22295 -9.25659 -22.0714 
9.98186 -11.261 -19.9638 
12.4253 -12.937 -17.414 
14.4267 -14.2128 -14.6583 
3 0 1 2 
3 3 4 5 
3 0 2 6 
3 0 6 7 
3 0 7 8 
3 3 5 9 
3 10 11 12 
3 13 14 15 
3 16 17 18 
3 19 20 21 
3 3 9 22 
3 10 12 23 
3 13 15 24 
3 16 18 25 
3 19 21 26 
3 27 28 29 
3 30 31 32 
3 33 34 35 
3 36 37 38 
3 39 40 41 
3 42 43 44 
3 45 46 42 
3 47 48 45 
3 49 50 47 
3 51 52 49 
3 53 54 51 
3 41 55 53 
3 42 46 43 
3 46 56 43 
3 45 48 46 
3 48 57 46 
3 46 57 56 
3 57 58 56 
3 47 50 48 
3 50 59 48 
3 48 59 57 
3 59 60 57 
3 57 60 58 
3 60 61 58 
3 49 52 50 
3 52 62 50 
3 50 62 59 
3 62 63 59 
3 59 63 60 
3 63 64 60 
3 60 64 61 
3 64 65 61 
3 51 54 52 
3 54 66 52 
3 52 66 62 
3 66 67 62 
3 62 67 63 
3 67 68 63 
3 63 68 64 
3 68 69 64 
3 64 69 65 
3 69 70 65 
3 53 55 54 
3 55 71 54 
3 54 71 66 
3 71 72 66 
3 66 72 67 
3 72 73 67 
3 67 73 68 
3 73 74 68 
3 68 74 69 
3 74 75 69 
3 69 75 70 
3 75 38 70 
3 41 40 55 
3 40 76 55 
3 55 76 71 
3 76 77 71 
3 71 77 72 
3 77 78 72 
3 72 78 73 
3 78 79 73 
3 73 79 74 
3 79 80 74 
3 74 80 75 
3 80 81 75 
3 75 81 38 
3 81 36 38 
3 43 82 44 
3 56 83 43 
3 58 84 56 
3 61 85 58 
3 65 86 61 
3 70 87 65 
3 38 88 70 
3 43 83 82 
3 83 89 82 
3 56 84 83 
3 84 90 83 
3 83 90 89 
3 90 91 89 
3 58 85 84 
3 85 92 84 
3 84 92 90 
3 92 93 90 
3 90 93 91 
3 93 94 91 
3 61 86 85 
3 86 95 85 
3 85 95 92 
3 95 96 92 
3 92 96 93 
3 96 97 93 
3 93 97 94 
3 97 98 94 
3 65 87 86 
3 87 99 86 
3 86 99 95 
3 99 100 95 
3 95 100 96 
3 100 101 96 
3 96 101 97 
3 101 102 97 
3 97 102 98 
3 102 103 98 
3 70 88 87 
3 88 104 87 
3 87 104 99 
3 104 105 99 
3 99 105 100 
3 105 106 100 
3 100 106 101 
3 106 107 101 
3 101 107 102 
3 107 108 102 
3 102 108 103 
3 108 35 103 
3 38 37 88 
3 37 109 88 
3 88 109 104 
3 109 110 104 
3 104 110 105 
3 110 111 105 
3 105 111 106 
3 111 112 106 
3 106 112 107 
3 112 113 107 
3 107 113 108 
3 113 114 108 
3 108 114 35 
3 114 33 35 
3 82 115 44 
3 89 116 82 
3 91 117 89 
3 94 118 91 
3 98 119 94 
3 103 120 98 
3 35 121 103 
3 82 116 115 
3 116 122 115 
3 89 117 116 
3 117 123 116 
3 116 123 122 
3 123 124 122 
3 91 118 117 
3 118 125 117 
3 117 125 123 
3 125 126 123 
3 123 126 124 
3 126 127 124 
3 94 119 118 
3 119 128 118 
3 118 128 125 
3 128 129 125 
3 125 129 126 
3 129 130 126 
3 126 130 127 
3 130 131 127 
3 98 120 119 
3 120 132 119 
3 119 132 128 
3 132 133 128 
3 128 133 129 
3 133 134 129 
3 129 134 130 
3 134 135 130 
3 130 135 131 
3 135 136 131 
3 103 121 120 
3 121 137 120 
3 120 137 132 
3 137 138 132 
3 132 138 133 
3 138 139 133 
3 133 139 134 
3 139 140 134 
3 134 140 135 
3 140 141 135 
3 135 141 136 
3 141 32 136 
3 35 34 121 
3 34 142 121 
3 121 142 137 
3 142 143 137 
3 137 143 138 
3 143 144 138 
3 138 144 139 
3 144 145 139 
3 139 145 140 
3 145 146 140 
3 140 146 141 
3 146 147 141 
3 141 147 32 
3 147 30 32 
3 115 148 44 
3 122 149 115 
3 124 150 122 
3 127 151 124 
3 131 152 127 
3 136 153 131 
3 32 154 136 
3 115 149 148 
3 149 155 148 
3 122 150 149 
3 150 156 149 
3 149 156 155 
3 156 157 155 
3 124 151 150 
3 151 158 150 
3 150 158 156 
3 158 159 156 
3 156 159 157 
3 159 160 157 
3 127 152 151 
3 152 161 151 
3 151 161 158 
3 161 162 158 
3 158 162 159 
3 162 163 159 
3 159 163 160 
3 163 164 160 
3 131 153 152 
3 153 165 152 
3 152 165 161 
3 165 166 161 
3 161 166 162 
3 166 167 162 
3 162 167 163 
3 167 168 163 
3 163 168 164 
3 168 169 164 
3 136 154 153 
3 154 170 153 
3 153 170 165 
3 170 171 165 
3 165 171 166 
3 171 172 166 
3 166 172 167 
3 172 173 167 
3 167 173 168 
3 173 174 168 
3 168 174 169 
3 174 29 169 
3 32 31 154 
3 31 175 154 
3 154 175 170 
3 175 176 170 
3 170 176 171 
3 176 177 171 
3 171 177 172 
3 177 178 172 
3 172 178 173 
3 178 179 173 
3 173 179 174 
3 179 180 174 
3 174 180 29 
3 180 27 29 
3 148 42 44 
3 155 181 148 
3 157 182 155 
3 160 183 157 
3 164 184 160 
3 169 185 164 
3 29 186 169 
3 148 181 42 
3 181 45 42 
3 155 182 181 
3 182 187 181 
3 181 187 45 
3 187 47 45 
3 157 183 182 
3 183 188 182 
3 182 188 187 
3 188 189 187 
3 187 189 47 
3 189 49 47 
3 160 184 183 
3 184 190 183 
3 183 190 188 
3 190 191 188 
3 188 191 189 
3 191 192 189 
3 189 192 49 
3 192 51 49 
3 164 185 184 
3 185 193 184 
3 184 193 190 
3 193 194 190 
3 190 194 191 
3 194 195 191 
3 191 195 192 
3 195 196 192 
3 192 196 51 
3 196 53 51 
3 169 186 185 
3 186 197 185 
3 185 197 193 
3 197 198 193 
3 193 198 194 
3 198 199 194 
3 194 199 195 
3 199 200 195 
3 195 200 196 
3 200 201 196 
3 196 201 53 
3 201 41 53 
3 29 28 186 
3 28 202 186 
3 186 202 197 
3 202 203 197 
3 197 203 198 
3 203 204 198 
3 198 204 199 
3 204 205 199 
3 199 205 200 
3 205 206 200 
3 200 206 201 
3 206 207 201 
3 201 207 41 
3 207 39 41 
3 208 40 39 
3 209 210 208 
3 211 212 209 
3 213 214 211 
3 215 216 213 
3 217 218 215 
3 26 219 217 
3 208 210 40 
3 210 76 40 
3 209 212 210 
3 212 220 210 
3 210 220 76 
3 220 77 76 
3 211 214 212 
3 214 221 212 
3 212 221 220 
3 221 222 220 
3 220 222 77 
3 222 78 77 
3 213 216 214 
3 216 223 214 
3 214 223 221 
3 223 224 221 
3 221 224 222 
3 224 225 222 
3 222 225 78 
3 225 79 78 
3 215 218 216 
3 218 226 216 
3 216 226 223 
3 226 227 223 
3 223 227 224 
3 227 228 224 
3 224 228 225 
3 228 229 225 
3 225 229 79 
3 229 80 79 
3 217 219 218 
3 219 230 218 
3 218 230 226 
3 230 231 226 
3 226 231 227 
3 231 232 227 
3 227 232 228 
3 232 233 228 
3 228 233 229 
3 233 234 229 
3 229 234 80 
3 234 81 80 
3 26 21 219 
3 21 235 219 
3 219 235 230 
3 235 236 230 
3 230 236 231 
3 236 237 231 
3 231 237 232 
3 237 238 232 
3 232 238 233 
3 238 239 233 
3 233 239 234 
3 239 240 234 
3 234 240 81 
3 240 36 81 
3 241 37 36 
3 242 243 241 
3 244 245 242 
3 246 247 244 
3 248 249 246 
3 250 251 248 
3 25 252 250 
3 241 243 37 
3 243 109 37 
3 242 245 243 
3 245 253 243 
3 243 253 109 
3 253 110 109 
3 244 247 245 
3 247 254 245 
3 245 254 253 
3 254 255 253 
3 253 255 110 
3 255 111 110 
3 246 249 247 
3 249 256 247 
3 247 256 254 
3 256 257 254 
3 254 257 255 
3 257 258 255 
3 255 258 111 
3 258 112 111 
3 248 251 249 
3 251 259 249 
3 249 259 256 
3 259 260 256 
3 256 260 257 
3 260 261 257 
3 257 261 258 
3 261 262 258 
3 258 262 112 
3 262 113 112 
3 250 252 251 
3 252 263 251 
3 251 263 259 
3 263 264 259 
3 259 264 260 
3 264 265 260 
3 260 265 261 
3 265 266 261 
3 261 266 262 
3 266 267 262 
3 262 267 113 
3 267 114 113 
3 25 18 252 
3 18 268 252 
3 252 268 263 
3 268 269 263 
3 263 269 264 
3 269 270 264 
3 264 270 265 
3 270 271 265 
3 265 271 266 
3 271 272 266 
3 266 272 267 
3 272 273 267 
3 267 273 114 
3 273 33 114 
3 274 34 33 
3 275 276 274 
3 277 278 275 
3 279 280 277 
3 281 282 279 
3 283 284 281 
3 24 285 283 
3 274 276 34 
3 276 142 34 
3 275 278 276 
3 278 286 276 
3 276 286 142 
3 286 143 142 
3 277 280 278 
3 280 287 278 
3 278 287 286 
3 287 288 286 
3 286 288 143 
3 288 144 143 
3 279 282 280 
3 282 289 280 
3 280 289 287 
3 289 290 287 
3 287 290 288 
3 290 291 288 
3 288 291 144 
3 291 145 144 
3 281 284 282 
3 284 292 282 
3 282 292 289 
3 292 293 289 
3 289 293 290 
3 293 294 290 
3 290 294 291 
3 294 295 291 
3 291 295 145 
3 295 146 145 
3 283 285 284 
3 285 296 284 
3 284 296 292 
3 296 297 292 
3 292 297 293 
3 297 298 293 
3 293 298 294 
3 298 299 294 
3 294 299 295 
3 299 300 295 
3 295 300 146 
3 300 147 146 
3 24 15 285 
3 15 301 285 
3 285 301 296 
3 301 302 296 
3 296 302 297 
3 302 303 297 
3 297 303 298 
3 303 304 298 
3 298 304 299 
3 304 305 299 
3 299 305 300 
3 305 306 300 
3 300 306 147 
3 306 30 147 
3 307 31 30 
3 308 309 307 
3 310 311 308 
3 312 313 310 
3 314 315 312 
3 316 317 314 
3 23 318 316 
3 307 309 31 
3 309 175 31 
3 308 311 309 
3 311 319 309 
3 309 319 175 
3 319 176 175 
3 310 313 311 
3 313 320 311 
3 311 320 319 
3 320 321 319 
3 319 321 176 
3 321 177 176 
3 312 315 313 
3 315 322 313 
3 313 322 320 
3 322 323 320 
3 320 323 321 
3 323 324 321 
3 321 324 177 
3 324 178 177 
3 314 317 315 
3 317 325 315 
3 315 325 322 
3 325 326 322 
3 322 326 323 
3 326 327 323 
3 323 327 324 
3 327 328 324 
3 324 328 178 
3 328 179 178 
3 316 318 317 
3 318 329 317 
3 317 329 325 
3 329 330 325 
3 325 330 326 
3 330 331 326 
3 326 331 327 
3 331 332 327 
3 327 332 328 
3 332 333 328 
3 328 333 179 
3 333 180 179 
3 23 12 318 
3 12 334 318 
3 318 334 329 
3 334 335 329 
3 329 335 330 
3 335 336 330 
3 330 336 331 
3 336 337 331 
3 331 337 332 
3 337 338 332 
3 332 338 333 
3 338 339 333 
3 333 339 180 
3 339 27 180 
3 340 28 27 
3 341 342 340 
3 343 344 341 
3 345 346 343 
3 347 348 345 
3 349 350 347 
3 22 351 349 
3 340 342 28 
3 342 202 28 
3 341 344 342 
3 344 352 342 
3 342 352 202 
3 352 203 202 
3 343 346 344 
3 346 353 344 
3 344 353 352 
3 353 354 352 
3 352 354 203 
3 354 204 203 
3 345 348 346 
3 348 355 346 
3 346 355 353 
3 355 356 353 
3 353 356 354 
3 356 357 354 
3 354 357 204 
3 357 205 204 
3 347 350 348 
3 350 358 348 
3 348 358 355 
3 358 359 355 
3 355 359 356 
3 359 360 356 
3 356 360 357 
3 360 361 357 
3 357 361 205 
3 361 206 205 
3 349 351 350 
3 351 362 350 
3 350 362 358 
3 362 363 358 
3 358 363 359 
3 363 364 359 
3 359 364 360 
3 364 365 360 
3 360 365 361 
3 365 366 361 
3 361 366 206 
3 366 207 206 
3 22 9 351 
3 9 367 351 
3 351 367 362 
3 367 368 362 
3 362 368 363 
3 368 369 363 
3 363 369 364 
3 369 370 364 
3 364 370 365 
3 370 371 365 
3 365 371 366 
3 371 372 366 
3 366 372 207 
3 372 39 207 
3 240 241 36 
3 239 373 240 
3 238 374 239 
3 237 375 238 
3 236 376 237 
3 235 377 236 
3 21 378 235 
3 240 373 241 
3 373 242 241 
3 239 374 373 
3 374 379 373 
3 373 379 242 
3 379 244 242 
3 238 375 374 
3 375 380 374 
3 374 380 379 
3 380 381 379 
3 379 381 244 
3 381 246 244 
3 237 376 375 
3 376 382 375 
3 375 382 380 
3 382 383 380 
3 380 383 381 
3 383 384 381 
3 381 384 246 
3 384 248 246 
3 236 377 376 
3 377 385 376 
3 376 385 382 
3 385 386 382 
3 382 386 383 
3 386 387 383 
3 383 387 384 
3 387 388 384 
3 384 388 248 
3 388 250 248 
3 235 378 377 
3 378 389 377 
3 377 389 385 
3 389 390 385 
3 385 390 386 
3 390 391 386 
3 386 391 387 
3 391 392 387 
3 387 392 388 
3 392 393 388 
3 388 393 250 
3 393 25 250 
3 21 20 378 
3 20 394 378 
3 378 394 389 
3 394 395 389 
3 389 395 390 
3 395 396 390 
3 390 396 391 
3 396 397 391 
3 391 397 392 
3 397 398 392 
3 392 398 393 
3 398 399 393 
3 393 399 25 
3 399 16 25 
3 273 274 33 
3 272 400 273 
3 271 401 272 
3 270 402 271 
3 269 403 270 
3 268 404 269 
3 18 405 268 
3 273 400 274 
3 400 275 274 
3 272 401 400 
3 401 406 400 
3 400 406 275 
3 406 277 275 
3 271 402 401 
3 402 407 401 
3 401 407 406 
3 407 408 406 
3 406 408 277 
3 408 279 277 
3 270 403 402 
3 403 409 402 
3 402 409 407 
3 409 410 407 
3 407 410 408 
3 410 411 408 
3 408 411 279 
3 411 281 279 
3 269 404 403 
3 404 412 403 
3 403 412 409 
3 412 413 409 
3 409 413 410 
3 413 414 410 
3 410 414 411 
3 414 415 411 
3 411 415 281 
3 415 283 281 
3 268 405 404 
3 405 416 404 
3 404 416 412 
3 416 417 412 
3 412 417 413 
3 417 418 413 
3 413 418 414 
3 418 419 414 
3 414 419 415 
3 419 420 415 
3 415 420 283 
3 420 24 283 
3 18 17 405 
3 17 421 405 
3 405 421 416 
3 421 422 416 
3 416 422 417 
3 422 423 417 
3 417 423 418 
3 423 424 418 
3 418 424 419 
3 424 425 419 
3 419 425 420 
3 425 426 420 
3 420 426 24 
3 426 13 24 
3 306 307 30 
3 305 427 306 
3 304 428 305 
3 303 429 304 
3 302 430 303 
3 301 431 302 
3 15 432 301 
3 306 427 307 
3 427 308 307 
3 305 428 427 
3 428 433 427 
3 427 433 308 
3 433 310 308 
3 304 429 428 
3 429 434 428 
3 428 434 433 
3 434 435 433 
3 433 435 310 
3 435 312 310 
3 303 430 429 
3 430 436 429 
3 429 436 434 
3 436 437 434 
3 434 437 435 
3 437 438 435 
3 435 438 312 
3 438 314 312 
3 302 431 430 
3 431 439 430 
3 430 439 436 
3 439 440 436 
3 436 440 437 
3 440 441 437 
3 437 441 438 
3 441 442 438 
3 438 442 314 
3 442 316 314 
3 301 432 431 
3 432 443 431 
3 431 443 439 
3 443 444 439 
3 439 444 440 
3 444 445 440 
3 440 445 441 
3 445 446 441 
3 441 446 442 
3 446 447 442 
3 442 447 316 
3 447 23 316 
3 15 14 432 
3 14 448 432 
3 432 448 443 
3 448 449 443 
3 443 449 444 
3 449 450 444 
3 444 450 445 
3 450 451 445 
3 445 451 446 
3 451 452 446 
3 446 452 447 
3 452 453 447 
3 447 453 23 
3 453 10 23 
3 339 340 27 
3 338 454 339 
3 337 455 338 
3 336 456 337 
3 335 457 336 
3 334 458 335 
3 12 459 334 
3 339 454 340 
3 454 341 340 
3 338 455 454 
3 455 460 454 
3 454 460 341 
3 460 343 341 
3 337 456 455 
3 456 461 455 
3 455 461 460 
3 461 462 460 
3 460 462 343 
3 462 345 343 
3 336 457 456 
3 457 463 456 
3 456 463 461 
3 463 464 461 
3 461 464 462 
3 464 465 462 
3 462 465 345 
3 465 347 345 
3 335 458 457 
3 458 466 457 
3 457 466 463 
3 466 467 463 
3 463 467 464 
3 467 468 464 
3 464 468 465 
3 468 469 465 
3 465 469 347 
3 469 349 347 
3 334 459 458 
3 459 470 458 
3 458 470 466 
3 470 471 466 
3 466 471 467 
3 471 472 467 
3 467 472 468 
3 472 473 468 
3 468 473 469 
3 473 474 469 
3 469 474 349 
3 474 22 349 
3 12 11 459 
3 11 475 459 
3 459 475 470 
3 475 476 470 
3 470 476 471 
3 476 477 471 
3 471 477 472 
3 477 478 472 
3 472 478 473 
3 478 479 473 
3 473 479 474 
3 479 480 474 
3 474 480 22 
3 480 3 22 
3 372 208 39 
3 371 481 372 
3 370 482 371 
3 369 483 370 
3 368 484 369 
3 367 485 368 
3 9 486 367 
3 372 481 208 
3 481 209 208 
3 371 482 481 
3 482 487 481 
3 481 487 209 
3 487 211 209 
3 370 483 482 
3 483 488 482 
3 482 488 487 
3 488 489 487 
3 487 489 211 
3 489 213 211 
3 369 484 483 
3 484 490 483 
3 483 490 488 
3 490 491 488 
3 488 491 489 
3 491 492 489 
3 489 492 213 
3 492 215 213 
3 368 485 484 
3 485 493 484 
3 484 493 490 
3 493 494 490 
3 490 494 491 
3 494 495 491 
3 491 495 492 
3 495 496 492 
3 492 496 215 
3 496 217 215 
3 367 486 485 
3 486 497 485 
3 485 497 493 
3 497 498 493 
3 493 498 494 
3 498 499 494 
3 494 499 495 
3 499 500 495 
3 495 500 496 
3 500 501 496 
3 496 501 217 
3 501 26 217 
3 9 5 486 
3 5 502 486 
3 486 502 497 
3 502 503 497 
3 497 503 498 
3 503 504 498 
3 498 504 499 
3 504 505 499 
3 499 505 500 
3 505 506 500 
3 500 506 501 
3 506 507 501 
3 501 507 26 
3 507 19 26 
3 508 20 19 
3 509 510 508 
3 511 512 509 
3 513 514 511 
3 515 516 513 
3 517 518 515 
3 8 519 517 
3 508 510 20 
3 510 394 20 
3 509 512 510 
3 512 520 510 
3 510 520 394 
3 520 395 394 
3 511 514 512 
3 514 521 512 
3 512 521 520 
3 521 522 520 
3 520 522 395 
3 522 396 395 
3 513 516 514 
3 516 523 514 
3 514 523 521 
3 523 524 521 
3 521 524 522 
3 524 525 522 
3 522 525 396 
3 525 397 396 
3 515 518 516 
3 518 526 516 
3 516 526 523 
3 526 527 523 
3 523 527 524 
3 527 528 524 
3 524 528 525 
3 528 529 525 
3 525 529 397 
3 529 398 397 
3 517 519 518 
3 519 530 518 
3 518 530 526 
3 530 531 526 
3 526 531 527 
3 531 532 527 
3 527 532 528 
3 532 533 528 
3 528 533 529 
3 533 534 529 
3 529 534 398 
3 534 399 398 
3 8 7 519 
3 7 535 519 
3 519 535 530 
3 535 536 530 
3 530 536 531 
3 536 537 531 
3 531 537 532 
3 537 538 532 
3 532 538 533 
3 538 539 533 
3 533 539 534 
3 539 540 534 
3 534 540 399 
3 540 16 399 
3 540 17 16 
3 539 541 540 
3 538 542 539 
3 537 543 538 
3 536 544 537 
3 535 545 536 
3 7 546 535 
3 540 541 17 
3 541 421 17 
3 539 542 541 
3 542 547 541 
3 541 547 421 
3 547 422 421 
3 538 543 542 
3 543 548 542 
3 542 548 547 
3 548 549 547 
3 547 549 422 
3 549 423 422 
3 537 544 543 
3 544 550 543 
3 543 550 548 
3 550 551 548 
3 548 551 549 
3 551 552 549 
3 549 552 423 
3 552 424 423 
3 536 545 544 
3 545 553 544 
3 544 553 550 
3 553 554 550 
3 550 554 551 
3 554 555 551 
3 551 555 552 
3 555 556 552 
3 552 556 424 
3 556 425 424 
3 535 546 545 
3 546 557 545 
3 545 557 553 
3 557 558 553 
3 553 558 554 
3 558 559 554 
3 554 559 555 
3 559 560 555 
3 555 560 556 
3 560 561 556 
3 556 561 425 
3 561 426 425 
3 7 6 546 
3 6 562 546 
3 546 562 557 
3 562 563 557 
3 557 563 558 
3 563 564 558 
3 558 564 559 
3 564 565 559 
3 559 565 560 
3 565 566 560 
3 560 566 561 
3 566 567 561 
3 561 567 426 
3 567 13 426 
3 567 14 13 
3 566 568 567 
3 565 569 566 
3 564 570 565 
3 563 571 564 
3 562 572 563 
3 6 573 562 
3 567 568 14 
3 568 448 14 
3 566 569 568 
3 569 574 568 
3 568 574 448 
3 574 449 448 
3 565 570 569 
3 570 575 569 
3 569 575 574 
3 575 576 574 
3 574 576 449 
3 576 450 449 
3 564 571 570 
3 571 577 570 
3 570 577 575 
3 577 578 575 
3 575 578 576 
3 578 579 576 
3 576 579 450 
3 579 451 450 
3 563 572 571 
3 572 580 571 
3 571 580 577 
3 580 581 577 
3 577 581 578 
3 581 582 578 
3 578 582 579 
3 582 583 579 
3 579 583 451 
3 583 452 451 
3 562 573 572 
3 573 584 572 
3 572 584 580 
3 584 585 580 
3 580 585 581 
3 585 586 581 
3 581 586 582 
3 586 587 582 
3 582 587 583 
3 587 588 583 
3 583 588 452 
3 588 453 452 
3 6 2 573 
3 2 589 573 
3 573 589 584 
3 589 590 584 
3 584 590 585 
3 590 591 585 
3 585 591 586 
3 591 592 586 
3 586 592 587 
3 592 593 587 
3 587 593 588 
3 593 594 588 
3 588 594 453 
3 594 10 453 
3 507 508 19 
3 506 595 507 
3 505 596 506 
3 504 597 505 
3 503 598 504 
3 502 599 503 
3 5 600 502 
3 507 595 508 
3 595 509 508 
3 506 596 595 
3 596 601 595 
3 595 601 509 
3 601 511 509 
3 505 597 596 
3 597 602 596 
3 596 602 601 
3 602 603 601 
3 601 603 511 
3 603 513 511 
3 504 598 597 
3 598 604 597 
3 597 604 602 
3 604 605 602 
3 602 605 603 
3 605 606 603 
3 603 606 513 
3 606 515 513 
3 503 599 598 
3 599 607 598 
3 598 607 604 
3 607 608 604 
3 604 608 605 
3 608 609 605 
3 605 609 606 
3 609 610 606 
3 606 610 515 
3 610 517 515 
3 502 600 599 
3 600 611 599 
3 599 611 607 
3 611 612 607 
3 607 612 608 
3 612 613 608 
3 608 613 609 
3 613 614 609 
3 609 614 610 
3 614 615 610 
3 610 615 517 
3 615 8 517 
3 5 4 600 
3 4 616 600 
3 600 616 611 
3 616 617 611 
3 611 617 612 
3 617 618 612 
3 612 618 613 
3 618 619 613 
3 613 619 614 
3 619 620 614 
3 614 620 615 
3 620 1 615 
3 615 1 8 
3 1 0 8 
3 594 11 10 
3 593 621 594 
3 592 622 593 
3 591 623 592 
3 590 624 591 
3 589 625 590 
3 2 626 589 
3 594 621 11 
3 621 475 11 
3 593 622 621 
3 622 627 621 
3 621 627 475 
3 627 476 475 
3 592 623 622 
3 623 628 622 
3 622 628 627 
3 628 629 627 
3 627 629 476 
3 629 477 476 
3 591 624 623 
3 624 630 623 
3 623 630 628 
3 630 631 628 
3 628 631 629 
3 631 632 629 
3 629 632 477 
3 632 478 477 
3 590 625 624 
3 625 633 624 
3 624 633 630 
3 633 634 630 
3 630 634 631 
3 634 635 631 
3 631 635 632 
3 635 636 632 
3 632 636 478 
3 636 479 478 
3 589 626 625 
3 626 637 625 
3 625 637 633 
3 637 638 633 
3 633 638 634 
3 638 639 634 
3 634 639 635 
3 639 640 635 
3 635 640 636 
3 640 641 636 
3 636 641 479 
3 641 480 479 
3 2 1 626 
3 1 620 626 
3 626 620 637 
3 620 619 637 
3 637 619 638 
3 619 618 638 
3 638 618 639 
3 618 617 639 
3 639 617 640 
3 617 616 640 
3 640 616 641 
3 616 4 641 
3 641 4 480 
3 4 3 480 
