ply
format ascii 1.0
comment Created by Blender 2.78 (sub 0) - www.blender.org, source file: ''
element vertex 642
property float x
property float y
property float z
element face 1280
property list uchar uint vertex_indices
end_header
0.000000 0.000000 -125.000000
12.058823 -8.761144 -124.108131
-4.605967 -14.175948 -124.108131
90.450912 -65.715660 -55.902439
84.412491 -61.328537 -68.835617
96.471405 -52.567318 -59.623360
-14.905625 0.000000 -124.108116
-4.605967 14.175948 -124.108131
12.058823 8.761144 -124.108131
99.318375 -61.328617 -44.717579
-34.548500 -106.331154 -55.902481
-20.183157 -107.993904 -59.623459
-27.636118 -113.408890 -44.717644
-111.803268 0.000000 -55.901947
-108.945602 -14.175979 -59.622971
-116.398499 -8.761165 -44.717239
-34.548500 106.331154 -55.902481
-47.147873 99.232658 -59.623451
-44.301144 107.994148 -44.717693
90.450912 65.715660 -55.902439
79.806564 75.504692 -59.623425
89.018799 75.504868 -44.717674
89.018799 -75.504868 -44.717674
-44.301144 -107.994148 -44.717693
-116.398499 8.761166 -44.717243
-27.636118 113.408890 -44.717644
99.318375 61.328617 -44.717579
34.548500 -106.331154 55.902481
47.147873 -99.232658 59.623451
32.242065 -99.232559 68.835655
-90.450912 -65.715660 55.902439
-79.806564 -75.504692 59.623425
-84.412491 -61.328537 68.835617
-90.450912 65.715660 55.902439
-96.471405 52.567318 59.623360
-84.412491 61.328537 68.835617
34.548500 106.331154 55.902481
20.183157 107.993904 59.623459
32.242065 99.232559 68.835655
111.803268 0.000000 55.901947
108.945602 14.175979 59.622971
104.339500 0.000000 68.835098
14.905625 0.000000 124.108116
4.605967 14.175949 124.108131
0.000000 0.000000 125.000000
31.393373 0.000000 120.993622
20.774708 15.093662 122.333946
48.709171 0.000000 115.119141
38.395905 15.814736 117.901016
65.716217 0.000000 106.331451
56.421844 16.216333 110.356720
81.181999 0.000000 95.049904
73.472862 16.216364 99.818672
94.180206 0.000000 82.189346
88.282227 15.814830 87.069756
100.127693 15.093794 73.291336
9.700831 29.856594 120.993713
26.905600 31.629473 117.901085
15.051582 46.324791 115.119347
45.225040 32.857880 111.803650
32.857727 48.648998 110.356903
20.306948 62.499416 106.331795
63.341087 33.300331 102.489006
51.243851 49.950497 102.489105
38.126690 64.865456 99.818970
25.086061 77.208267 95.050369
79.774193 32.858013 90.451248
68.751015 49.950600 91.669159
55.901150 65.716026 90.451454
42.321064 79.074135 87.070129
29.102688 89.570389 82.189896
93.420753 31.629723 76.792725
84.010849 48.649303 78.742752
72.228798 64.865730 78.742851
58.949890 79.074310 76.793007
45.295715 90.562767 73.291771
103.881332 29.856674 62.787331
96.234009 46.324936 64.946259
86.023666 62.499607 65.717018
73.795715 77.208481 64.946472
60.496426 89.570557 62.787704
47.147884 99.232666 59.623459
-12.058823 8.761144 124.108131
-7.935329 24.421968 122.333954
-3.175996 41.403419 117.901108
2.012272 58.671120 110.356918
7.281199 74.887589 99.819000
12.239366 88.848091 87.070160
16.585533 99.891098 73.291809
-25.397617 18.452230 120.993706
-21.767281 35.362648 117.901108
-39.406345 28.630051 115.119331
-17.274660 53.164944 111.803726
-36.114498 46.282784 110.356911
-53.165337 38.626423 106.331764
-12.097401 70.530983 102.489197
-31.670776 64.171104 102.489182
-49.909061 56.305031 99.818977
-65.677467 47.716911 95.050339
-6.598699 86.023117 90.451538
-26.260950 80.821396 91.669327
-45.225464 73.472298 90.451523
-62.126163 64.684845 87.070137
-76.193336 55.357048 82.189857
-1.213560 98.622253 76.793083
-20.307858 94.932243 78.742989
-39.371342 88.738037 78.742989
-56.987801 80.499794 76.793060
-72.133278 71.064110 73.291779
3.704911 108.023026 62.787743
-14.320491 105.838867 64.946564
-32.858601 101.126457 65.717216
-50.626057 94.042267 64.946556
-66.492622 85.214050 62.787716
-79.806564 75.504692 59.623425
-12.058823 -8.761144 124.108131
-25.678942 0.000000 122.333931
-40.358551 9.773953 117.901047
-55.177849 20.044291 110.356827
-68.972427 30.066484 99.818893
-80.717476 39.095989 87.070053
-89.876930 46.641884 73.291687
-25.397617 -18.452230 120.993706
-40.358551 -9.773953 117.901047
-39.406345 -28.630051 115.119331
-55.901237 -0.000002 111.803627
-55.177849 -20.044291 110.356827
-53.165337 -38.626423 106.331764
-70.817421 10.290251 102.489029
-70.817421 -10.290255 102.489029
-68.972427 -30.066486 99.818893
-65.677467 -47.716911 95.050339
-83.852081 20.307127 90.451355
-84.981003 -0.000002 91.669128
-83.852081 -20.307133 90.451355
-80.717476 -39.095993 87.070053
-76.193336 -55.357048 82.189857
-94.170433 29.322006 76.792900
-96.561546 10.022176 78.742775
-96.561546 -10.022176 78.742775
-94.170433 -29.322006 76.792900
-89.876930 -46.641884 73.291687
-101.591156 36.904713 62.787575
-105.084099 19.086792 64.946358
-106.330986 0.000000 65.716988
-105.084099 -19.086792 64.946358
-101.591156 -36.904713 62.787575
-96.471405 -52.567318 59.623360
4.605967 -14.175949 124.108131
-7.935328 -24.421968 122.333954
-21.767281 -35.362648 117.901108
-36.114498 -46.282784 110.356911
-49.909058 -56.305031 99.818985
-62.126163 -64.684853 87.070137
-72.133263 -71.064110 73.291779
9.700831 -29.856594 120.993713
-3.175996 -41.403419 117.901108
15.051582 -46.324791 115.119347
-17.274658 -53.164944 111.803726
2.012272 -58.671120 110.356918
20.306948 -62.499416 106.331795
-31.670773 -64.171097 102.489197
-12.097397 -70.530968 102.489189
7.281201 -74.887589 99.819008
25.086061 -77.208267 95.050369
-45.225452 -73.472298 90.451523
-26.260944 -80.821396 91.669327
-6.598696 -86.023117 90.451538
12.239366 -88.848091 87.070168
29.102688 -89.570389 82.189896
-56.987789 -80.499794 76.793060
-39.371334 -88.738037 78.742996
-20.307854 -94.932243 78.743004
-1.213558 -98.622261 76.793091
16.585535 -99.891106 73.291809
-66.492622 -85.214058 62.787716
-50.626049 -94.042274 64.946548
-32.858597 -101.126450 65.717201
-14.320495 -105.838882 64.946564
3.704908 -108.023033 62.787743
20.183155 -107.993904 59.623459
20.774710 -15.093662 122.333946
26.905600 -31.629473 117.901085
32.857727 -48.648998 110.356903
38.126690 -64.865456 99.818970
42.321056 -79.074135 87.070129
45.295708 -90.562759 73.291771
38.395905 -15.814736 117.901016
45.225040 -32.857876 111.803658
56.421844 -16.216331 110.356728
51.243851 -49.950497 102.489113
63.341080 -33.300327 102.489006
73.472862 -16.216362 99.818680
55.901146 -65.716026 90.451454
68.751007 -49.950600 91.669159
79.774193 -32.858013 90.451248
88.282227 -15.814830 87.069756
58.949890 -79.074310 76.793007
72.228798 -64.865730 78.742851
84.010849 -48.649303 78.742760
93.420753 -31.629723 76.792740
100.127701 -15.093794 73.291336
60.496418 -89.570564 62.787704
73.795708 -77.208488 64.946472
86.023666 -62.499619 65.717026
96.233994 -46.324936 64.946259
103.881325 -29.856676 62.787331
108.945602 -14.175982 59.622978
116.398499 8.761165 44.717239
119.578224 18.452293 31.393681
112.967461 24.422052 47.612148
120.588921 28.630161 16.236574
115.188477 35.362801 33.257851
118.882233 38.626575 -0.000001
114.857033 46.283020 17.051201
114.387306 47.717079 -16.236624
111.600677 56.305328 -0.000004
107.587212 55.357189 -31.393856
105.661278 64.685150 -16.629019
97.812683 71.064362 -31.741682
106.874001 41.403595 49.886776
107.725525 53.165237 34.549519
97.805809 58.671406 51.153606
105.832466 64.171494 17.507378
97.078766 70.531403 35.014763
86.023788 74.887947 51.153706
101.127411 73.472755 -0.000001
93.735298 80.821938 17.507427
83.852570 86.023628 34.549671
72.403252 88.848488 49.887058
94.171051 80.500229 -16.629047
88.036682 88.738617 0.000011
79.511024 94.932861 17.051331
69.227478 98.622780 33.258129
58.135590 99.891426 47.612549
85.894814 85.214424 -31.393991
80.729919 94.042824 -16.236731
73.473198 101.127098 0.000001
64.493202 105.839493 16.236736
54.500854 108.023491 31.394007
44.301144 107.994148 44.717693
27.636118 113.408890 44.717644
19.401884 119.427750 31.393938
11.681382 114.985199 47.612495
10.034497 123.534126 16.236689
1.962472 120.478432 33.258045
0.000000 125.000000 -0.000001
-8.525627 123.537720 17.051256
-10.034497 123.534126 -16.236691
-19.063572 123.537773 -0.000044
-19.401884 119.427750 -31.393940
-28.868483 120.478554 -16.629095
-37.360661 114.985397 -31.741755
-6.352040 114.437477 49.887039
-17.274815 118.881889 34.549633
-25.576881 111.149071 51.153770
-28.327255 120.482605 17.507380
-37.080956 114.122597 35.014809
-44.640442 104.954865 51.153778
-38.627064 118.882080 -0.000060
-47.900852 114.122726 17.507389
-55.901890 106.331085 34.549660
-62.126495 96.315010 49.887054
-47.460045 114.437820 -16.629114
-57.190849 111.149483 -0.000048
-65.716499 104.955208 17.051281
-72.403595 96.315193 33.258087
-77.037727 86.158211 47.612526
-54.500854 108.023483 -31.394005
-64.493202 105.839470 -16.236734
-73.473213 101.127090 0.000001
-80.729927 94.042801 16.236732
-85.894821 85.214409 31.393993
-89.018799 75.504868 44.717674
-99.318375 61.328617 44.717579
-107.587219 55.357193 31.393858
-105.747765 46.641964 47.612362
-114.387299 47.717083 16.236624
-113.975456 39.096115 33.257915
-118.882240 38.626579 -0.000001
-120.126007 30.066610 17.051184
-120.588921 28.630161 -16.236576
-123.382431 20.044369 0.000012
-119.578217 18.452293 -31.393684
-123.502838 9.773967 -16.628874
-120.902794 -0.000050 -31.741350
-110.799454 29.322069 49.886845
-118.401649 20.307203 34.549480
-113.612808 10.022203 51.153561
-123.339378 10.290282 17.507339
-119.995712 -0.000012 35.014668
-113.612801 -10.022202 51.153584
-125.000000 -0.000046 0.000076
-123.339363 -10.290347 17.507408
-118.401619 -20.307234 34.549572
-110.799416 -29.322075 49.886906
-123.502838 -9.774083 -16.628773
-123.382408 -20.044487 0.000181
-120.125946 -30.066702 17.051378
-113.975388 -39.096176 33.258076
-105.747711 -46.641991 47.612450
-119.578224 -18.452293 -31.393681
-120.588921 -28.630161 -16.236574
-118.882233 -38.626575 0.000001
-114.387306 -47.717079 16.236624
-107.587212 -55.357189 31.393856
-99.318375 -61.328617 44.717579
-89.018799 -75.504868 44.717674
-85.894814 -85.214424 31.393991
-77.037750 -86.158195 47.612499
-80.729919 -94.042824 16.236731
-72.403641 -96.315170 33.258049
-73.473198 -101.127098 -0.000001
-65.716560 -104.955170 17.051241
-64.493202 -105.839493 -16.236736
-57.190907 -111.149437 -0.000078
-54.500854 -108.023491 -31.394007
-47.460102 -114.437813 -16.629133
-37.360683 -114.985382 -31.741756
-62.126541 -96.314995 49.887020
-55.901974 -106.331062 34.549603
-44.640511 -104.954849 51.153740
-47.900955 -114.122711 17.507336
-37.081062 -114.122581 35.014748
-25.576956 -111.149071 51.153736
-38.627148 -118.882050 -0.000100
-28.327358 -120.482590 17.507334
-17.274906 -118.881882 34.549595
-6.352096 -114.437477 49.887012
-28.868530 -120.478554 -16.629110
-19.063629 -123.537758 -0.000063
-8.525686 -123.537720 17.051237
1.962426 -120.478432 33.258034
11.681356 -114.985207 47.612492
-19.401884 -119.427750 -31.393938
-10.034497 -123.534126 -16.236689
0.000000 -125.000000 0.000001
10.034497 -123.534126 16.236691
19.401884 -119.427750 31.393940
27.636118 -113.408890 44.717644
44.301144 -107.994148 44.717693
54.500854 -108.023483 31.394005
58.135578 -99.891457 47.612503
64.493202 -105.839470 16.236734
69.227470 -98.622818 33.258038
73.473213 -101.127090 -0.000001
79.511002 -94.932915 17.051201
80.729927 -94.042801 -16.236732
88.036636 -88.738663 -0.000140
85.894821 -85.214409 -31.393993
94.170982 -80.500275 -16.629196
97.812622 -71.064407 -31.741810
72.403221 -88.848534 49.886974
83.852539 -86.023727 34.549515
86.023781 -74.888039 51.153606
93.735229 -80.822044 17.507208
97.078728 -70.531548 35.014561
97.805801 -58.671513 51.153496
101.127335 -73.472878 -0.000241
105.832405 -64.171661 17.507113
107.725510 -53.165409 34.549301
106.874008 -41.403702 49.886658
105.661179 -64.685257 -16.629244
111.600594 -56.305492 -0.000288
114.856995 -46.283203 17.050924
115.188499 -35.362965 33.257645
112.967499 -24.422152 47.612045
107.587219 -55.357193 -31.393858
114.387299 -47.717083 -16.236624
118.882240 -38.626579 0.000001
120.588921 -28.630161 16.236576
119.578217 -18.452293 31.393684
116.398499 -8.761166 44.717243
37.360695 114.985397 31.741735
47.460098 114.437805 16.629076
57.190907 111.149445 0.000001
65.716553 104.955170 -17.051327
72.403641 96.315170 -33.258121
77.037735 86.158188 -47.612534
28.868542 120.478561 16.629063
38.627148 118.882065 0.000000
19.063637 123.537766 -0.000001
47.900932 114.122696 -17.507456
28.327343 120.482559 -17.507446
8.525689 123.537720 -17.051302
55.901943 106.331039 -34.549713
37.081028 114.122551 -35.014870
17.274885 118.881866 -34.549694
-1.962432 120.478416 -33.258083
62.126518 96.314987 -49.887089
44.640480 104.954826 -51.153816
25.576925 111.149033 -51.153812
6.352075 114.437454 -49.887074
-11.681364 114.985199 -47.612522
66.492622 85.214058 -62.787716
50.626049 94.042274 -64.946548
32.858597 101.126450 -65.717201
14.320495 105.838882 -64.946564
-3.704908 108.023033 -62.787743
-20.183155 107.993904 -59.623459
-97.812668 71.064392 31.741692
-94.171005 80.500282 16.629057
-88.036598 88.738701 0.000001
-79.510925 94.932953 -17.051315
-69.227348 98.622871 -33.258102
-58.135468 99.891525 -47.612522
-105.661240 64.685226 16.629019
-101.127312 73.472893 0.000000
-111.600609 56.305443 -0.000001
-93.735138 80.822113 -17.507425
-105.832329 64.171700 -17.507389
-114.856972 46.283161 -17.051214
-83.852386 86.023834 -34.549664
-97.078568 70.531670 -35.014774
-107.725395 53.165489 -34.549545
-115.188431 35.362957 -33.257877
-72.403038 88.848671 -49.887024
-86.023567 74.888222 -51.153698
-97.805603 58.671703 -51.153618
-106.873886 41.403858 -49.886810
-112.967407 24.422201 -47.612175
-60.496418 89.570564 -62.787704
-73.795708 77.208488 -64.946472
-86.023666 62.499619 -65.717026
-96.233994 46.324936 -64.946259
-103.881325 29.856676 -62.787331
-108.945602 14.175982 -59.622978
-97.812660 -71.064400 31.741692
-105.661240 -64.685234 16.629019
-111.600616 -56.305450 0.000001
-114.856979 -46.283173 -17.051216
-115.188431 -35.362961 -33.257874
-112.967407 -24.422199 -47.612171
-94.171005 -80.500298 16.629055
-101.127312 -73.472908 -0.000000
-88.036583 -88.738708 -0.000001
-105.832329 -64.171707 -17.507389
-93.735123 -80.822121 -17.507423
-79.510910 -94.932968 -17.051315
-107.725380 -53.165485 -34.549538
-97.078568 -70.531677 -35.014774
-83.852379 -86.023842 -34.549664
-69.227348 -98.622887 -33.258106
-106.873886 -41.403851 -49.886810
-97.805603 -58.671703 -51.153618
-86.023567 -74.888222 -51.153698
-72.403038 -88.848671 -49.887024
-58.135471 -99.891525 -47.612522
-103.881332 -29.856674 -62.787331
-96.234009 -46.324936 -64.946259
-86.023666 -62.499607 -65.717018
-73.795715 -77.208481 -64.946472
-60.496426 -89.570557 -62.787704
-47.147884 -99.232666 -59.623459
37.360695 -114.985397 31.741735
28.868544 -120.478561 16.629063
19.063643 -123.537766 0.000001
8.525692 -123.537720 -17.051302
-1.962428 -120.478416 -33.258083
-11.681362 -114.985191 -47.612514
47.460106 -114.437805 16.629078
38.627159 -118.882057 -0.000000
57.190922 -111.149445 -0.000001
28.327356 -120.482574 -17.507448
47.900951 -114.122688 -17.507458
65.716568 -104.955170 -17.051331
17.274893 -118.881866 -34.549698
37.081036 -114.122543 -35.014874
55.901958 -106.331039 -34.549717
72.403648 -96.315163 -33.258129
6.352079 -114.437462 -49.887074
25.576927 -111.149033 -51.153809
44.640480 -104.954826 -51.153812
62.126526 -96.314980 -49.887081
77.037743 -86.158180 -47.612530
-3.704911 -108.023026 -62.787743
14.320491 -105.838867 -64.946564
32.858601 -101.126457 -65.717216
50.626057 -94.042267 -64.946556
66.492622 -85.214050 -62.787716
79.806564 -75.504692 -59.623425
120.902779 0.000000 31.741428
123.502823 -9.773993 16.628916
123.382416 -20.044376 0.000001
120.125992 -30.066601 -17.051199
113.975456 -39.096100 -33.257942
105.747757 -46.641945 -47.612373
123.502823 9.773993 16.628916
124.999992 0.000000 0.000000
123.382423 20.044376 -0.000001
123.339378 -10.290298 -17.507320
123.339378 10.290294 -17.507320
120.125992 30.066597 -17.051199
118.401642 -20.307190 -34.549500
119.995728 0.000000 -35.014648
118.401642 20.307190 -34.549500
113.975456 39.096100 -33.257938
110.799446 -29.322052 -49.886871
113.612801 -10.022193 -51.153572
113.612801 10.022193 -51.153572
110.799438 29.322050 -49.886868
105.747757 46.641945 -47.612373
101.591156 -36.904713 -62.787575
105.084099 -19.086792 -64.946358
106.330986 0.000000 -65.716988
105.084099 19.086792 -64.946358
101.591156 36.904713 -62.787575
96.471405 52.567318 -59.623360
84.412491 61.328537 -68.835617
76.193336 55.357048 -82.189857
72.133263 71.064125 -73.291763
65.677467 47.716911 -95.050339
62.126160 64.684898 -87.070107
53.165337 38.626423 -106.331764
49.909050 56.305119 -99.818947
39.406345 28.630051 -115.119331
36.114479 46.282894 -110.356873
25.397617 18.452230 -120.993706
21.767250 35.362782 -117.901062
7.935291 24.422115 -122.333931
56.987782 80.499832 -76.793030
45.225441 73.472404 -90.451462
39.371323 88.738098 -78.742935
31.670731 64.171257 -102.489090
26.260904 80.821533 -91.669205
20.307835 94.932327 -78.742912
17.274603 53.165169 -111.803642
12.097330 70.531219 -102.489044
6.598639 86.023300 -90.451378
1.213531 98.622337 -76.792976
3.175922 41.403671 -117.901009
-2.012360 58.671421 -110.356766
-7.281285 74.887856 -99.818794
-12.239430 88.848282 -87.069969
-16.585560 99.891174 -73.291687
-9.700830 29.856590 -120.993713
-15.051580 46.324787 -115.119354
-20.306944 62.499405 -106.331802
-25.086061 77.208260 -95.050377
-29.102692 89.570389 -82.189903
-32.242069 99.232567 -68.835663
-45.295822 90.562698 -73.291794
-42.321167 79.074066 -87.070137
-38.126785 64.865410 -99.818977
-32.857803 48.648960 -110.356888
-26.905659 31.629457 -117.901077
-20.774748 15.093656 -122.333939
-58.950069 79.074150 -76.793022
-55.901329 65.715897 -90.451447
-72.229012 64.865509 -78.742836
-51.243988 49.950401 -102.489075
-68.751198 49.950432 -91.669121
-84.011040 48.649055 -78.742722
-45.225151 32.857822 -111.803619
-63.341225 33.300224 -102.488953
-79.774345 32.857857 -90.451187
-93.420868 31.629517 -76.792664
-38.395977 15.814717 -117.900986
-56.421944 16.216290 -110.356667
-73.472954 16.216295 -99.818604
-88.282303 15.814733 -87.069672
-100.127754 15.093679 -73.291290
-31.393373 0.000000 -120.993622
-48.709171 0.000000 -115.119141
-65.716217 0.000000 -106.331451
-81.181999 0.000000 -95.049904
-94.180206 0.000000 -82.189346
-104.339500 0.000000 -68.835098
-100.127747 -15.093700 -73.291306
-88.282280 -15.814782 -87.069695
-73.472923 -16.216377 -99.818619
-56.421921 -16.216402 -110.356674
-38.395973 -15.814847 -117.900970
-20.774767 -15.093798 -122.333916
-93.420860 -31.629562 -76.792664
-79.774323 -32.857967 -90.451164
-84.011024 -48.649132 -78.742676
-63.341202 -33.300392 -102.488899
-68.751183 -49.950592 -91.669044
-72.228996 -64.865608 -78.742775
-45.225166 -32.858040 -111.803551
-51.243999 -49.950630 -102.488953
-55.901321 -65.716080 -90.451317
-58.950066 -79.074242 -76.792931
-26.905704 -31.629705 -117.900993
-32.857857 -48.649258 -110.356735
-38.126835 -64.865685 -99.818787
-42.321190 -79.074257 -87.069954
-45.295826 -90.562775 -73.291679
-9.700830 -29.856590 -120.993713
-15.051580 -46.324787 -115.119354
-20.306944 -62.499405 -106.331802
-25.086061 -77.208260 -95.050377
-29.102692 -89.570389 -82.189903
-32.242069 -99.232567 -68.835663
89.876930 46.641888 -73.291695
94.170441 29.321997 -76.792892
96.561569 10.022155 -78.742752
96.561577 -10.022215 -78.742722
94.170479 -29.322052 -76.792824
89.876976 -46.641933 -73.291595
80.717491 39.095985 -87.070045
83.852127 20.307102 -90.451324
68.972458 30.066465 -99.818871
84.981071 -0.000060 -91.669052
70.817505 10.290195 -102.488976
55.177910 20.044256 -110.356812
83.852196 -20.307215 -90.451233
70.817574 -10.290358 -102.488937
55.901375 -0.000091 -111.803558
40.358639 9.773899 -117.901016
80.717590 -39.096088 -87.069885
68.972603 -30.066624 -99.818718
55.178051 -20.044441 -110.356697
40.358727 -9.774077 -117.900970
25.679047 -0.000069 -122.333923
76.193336 -55.357048 -82.189857
65.677467 -47.716911 -95.050339
53.165337 -38.626423 -106.331764
39.406345 -28.630051 -115.119331
25.397617 -18.452230 -120.993706
-16.585510 -99.891106 -73.291801
-12.239326 -88.848122 -87.070152
-7.281132 -74.887642 -99.818977
-2.012181 -58.671192 -110.356888
3.176099 -41.403500 -117.901062
7.935441 -24.422062 -122.333939
1.213607 -98.622276 -76.793068
6.598795 -86.023170 -90.451485
20.307930 -94.932274 -78.742950
12.097540 -70.531075 -102.489105
26.261089 -80.821472 -91.669212
39.371429 -88.738068 -78.742905
17.274839 -53.165073 -111.803650
31.670971 -64.171219 -102.489044
45.225632 -73.472389 -90.451378
56.987888 -80.499825 -76.792961
21.767481 -35.362797 -117.901016
36.114735 -46.282948 -110.356758
49.909279 -56.305187 -99.818787
62.126324 -64.684952 -87.069946
72.133339 -71.064140 -73.291656
3 0 1 2
3 3 4 5
3 0 2 6
3 0 6 7
3 0 7 8
3 3 5 9
3 10 11 12
3 13 14 15
3 16 17 18
3 19 20 21
3 3 9 22
3 10 12 23
3 13 15 24
3 16 18 25
3 19 21 26
3 27 28 29
3 30 31 32
3 33 34 35
3 36 37 38
3 39 40 41
3 42 43 44
3 45 46 42
3 47 48 45
3 49 50 47
3 51 52 49
3 53 54 51
3 41 55 53
3 42 46 43
3 46 56 43
3 45 48 46
3 48 57 46
3 46 57 56
3 57 58 56
3 47 50 48
3 50 59 48
3 48 59 57
3 59 60 57
3 57 60 58
3 60 61 58
3 49 52 50
3 52 62 50
3 50 62 59
3 62 63 59
3 59 63 60
3 63 64 60
3 60 64 61
3 64 65 61
3 51 54 52
3 54 66 52
3 52 66 62
3 66 67 62
3 62 67 63
3 67 68 63
3 63 68 64
3 68 69 64
3 64 69 65
3 69 70 65
3 53 55 54
3 55 71 54
3 54 71 66
3 71 72 66
3 66 72 67
3 72 73 67
3 67 73 68
3 73 74 68
3 68 74 69
3 74 75 69
3 69 75 70
3 75 38 70
3 41 40 55
3 40 76 55
3 55 76 71
3 76 77 71
3 71 77 72
3 77 78 72
3 72 78 73
3 78 79 73
3 73 79 74
3 79 80 74
3 74 80 75
3 80 81 75
3 75 81 38
3 81 36 38
3 43 82 44
3 56 83 43
3 58 84 56
3 61 85 58
3 65 86 61
3 70 87 65
3 38 88 70
3 43 83 82
3 83 89 82
3 56 84 83
3 84 90 83
3 83 90 89
3 90 91 89
3 58 85 84
3 85 92 84
3 84 92 90
3 92 93 90
3 90 93 91
3 93 94 91
3 61 86 85
3 86 95 85
3 85 95 92
3 95 96 92
3 92 96 93
3 96 97 93
3 93 97 94
3 97 98 94
3 65 87 86
3 87 99 86
3 86 99 95
3 99 100 95
3 95 100 96
3 100 101 96
3 96 101 97
3 101 102 97
3 97 102 98
3 102 103 98
3 70 88 87
3 88 104 87
3 87 104 99
3 104 105 99
3 99 105 100
3 105 106 100
3 100 106 101
3 106 107 101
3 101 107 102
3 107 108 102
3 102 108 103
3 108 35 103
3 38 37 88
3 37 109 88
3 88 109 104
3 109 110 104
3 104 110 105
3 110 111 105
3 105 111 106
3 111 112 106
3 106 112 107
3 112 113 107
3 107 113 108
3 113 114 108
3 108 114 35
3 114 33 35
3 82 115 44
3 89 116 82
3 91 117 89
3 94 118 91
3 98 119 94
3 103 120 98
3 35 121 103
3 82 116 115
3 116 122 115
3 89 117 116
3 117 123 116
3 116 123 122
3 123 124 122
3 91 118 117
3 118 125 117
3 117 125 123
3 125 126 123
3 123 126 124
3 126 127 124
3 94 119 118
3 119 128 118
3 118 128 125
3 128 129 125
3 125 129 126
3 129 130 126
3 126 130 127
3 130 131 127
3 98 120 119
3 120 132 119
3 119 132 128
3 132 133 128
3 128 133 129
3 133 134 129
3 129 134 130
3 134 135 130
3 130 135 131
3 135 136 131
3 103 121 120
3 121 137 120
3 120 137 132
3 137 138 132
3 132 138 133
3 138 139 133
3 133 139 134
3 139 140 134
3 134 140 135
3 140 141 135
3 135 141 136
3 141 32 136
3 35 34 121
3 34 142 121
3 121 142 137
3 142 143 137
3 137 143 138
3 143 144 138
3 138 144 139
3 144 145 139
3 139 145 140
3 145 146 140
3 140 146 141
3 146 147 141
3 141 147 32
3 147 30 32
3 115 148 44
3 122 149 115
3 124 150 122
3 127 151 124
3 131 152 127
3 136 153 131
3 32 154 136
3 115 149 148
3 149 155 148
3 122 150 149
3 150 156 149
3 149 156 155
3 156 157 155
3 124 151 150
3 151 158 150
3 150 158 156
3 158 159 156
3 156 159 157
3 159 160 157
3 127 152 151
3 152 161 151
3 151 161 158
3 161 162 158
3 158 162 159
3 162 163 159
3 159 163 160
3 163 164 160
3 131 153 152
3 153 165 152
3 152 165 161
3 165 166 161
3 161 166 162
3 166 167 162
3 162 167 163
3 167 168 163
3 163 168 164
3 168 169 164
3 136 154 153
3 154 170 153
3 153 170 165
3 170 171 165
3 165 171 166
3 171 172 166
3 166 172 167
3 172 173 167
3 167 173 168
3 173 174 168
3 168 174 169
3 174 29 169
3 32 31 154
3 31 175 154
3 154 175 170
3 175 176 170
3 170 176 171
3 176 177 171
3 171 177 172
3 177 178 172
3 172 178 173
3 178 179 173
3 173 179 174
3 179 180 174
3 174 180 29
3 180 27 29
3 148 42 44
3 155 181 148
3 157 182 155
3 160 183 157
3 164 184 160
3 169 185 164
3 29 186 169
3 148 181 42
3 181 45 42
3 155 182 181
3 182 187 181
3 181 187 45
3 187 47 45
3 157 183 182
3 183 188 182
3 182 188 187
3 188 189 187
3 187 189 47
3 189 49 47
3 160 184 183
3 184 190 183
3 183 190 188
3 190 191 188
3 188 191 189
3 191 192 189
3 189 192 49
3 192 51 49
3 164 185 184
3 185 193 184
3 184 193 190
3 193 194 190
3 190 194 191
3 194 195 191
3 191 195 192
3 195 196 192
3 192 196 51
3 196 53 51
3 169 186 185
3 186 197 185
3 185 197 193
3 197 198 193
3 193 198 194
3 198 199 194
3 194 199 195
3 199 200 195
3 195 200 196
3 200 201 196
3 196 201 53
3 201 41 53
3 29 28 186
3 28 202 186
3 186 202 197
3 202 203 197
3 197 203 198
3 203 204 198
3 198 204 199
3 204 205 199
3 199 205 200
3 205 206 200
3 200 206 201
3 206 207 201
3 201 207 41
3 207 39 41
3 208 40 39
3 209 210 208
3 211 212 209
3 213 214 211
3 215 216 213
3 217 218 215
3 26 219 217
3 208 210 40
3 210 76 40
3 209 212 210
3 212 220 210
3 210 220 76
3 220 77 76
3 211 214 212
3 214 221 212
3 212 221 220
3 221 222 220
3 220 222 77
3 222 78 77
3 213 216 214
3 216 223 214
3 214 223 221
3 223 224 221
3 221 224 222
3 224 225 222
3 222 225 78
3 225 79 78
3 215 218 216
3 218 226 216
3 216 226 223
3 226 227 223
3 223 227 224
3 227 228 224
3 224 228 225
3 228 229 225
3 225 229 79
3 229 80 79
3 217 219 218
3 219 230 218
3 218 230 226
3 230 231 226
3 226 231 227
3 231 232 227
3 227 232 228
3 232 233 228
3 228 233 229
3 233 234 229
3 229 234 80
3 234 81 80
3 26 21 219
3 21 235 219
3 219 235 230
3 235 236 230
3 230 236 231
3 236 237 231
3 231 237 232
3 237 238 232
3 232 238 233
3 238 239 233
3 233 239 234
3 239 240 234
3 234 240 81
3 240 36 81
3 241 37 36
3 242 243 241
3 244 245 242
3 246 247 244
3 248 249 246
3 250 251 248
3 25 252 250
3 241 243 37
3 243 109 37
3 242 245 243
3 245 253 243
3 243 253 109
3 253 110 109
3 244 247 245
3 247 254 245
3 245 254 253
3 254 255 253
3 253 255 110
3 255 111 110
3 246 249 247
3 249 256 247
3 247 256 254
3 256 257 254
3 254 257 255
3 257 258 255
3 255 258 111
3 258 112 111
3 248 251 249
3 251 259 249
3 249 259 256
3 259 260 256
3 256 260 257
3 260 261 257
3 257 261 258
3 261 262 258
3 258 262 112
3 262 113 112
3 250 252 251
3 252 263 251
3 251 263 259
3 263 264 259
3 259 264 260
3 264 265 260
3 260 265 261
3 265 266 261
3 261 266 262
3 266 267 262
3 262 267 113
3 267 114 113
3 25 18 252
3 18 268 252
3 252 268 263
3 268 269 263
3 263 269 264
3 269 270 264
3 264 270 265
3 270 271 265
3 265 271 266
3 271 272 266
3 266 272 267
3 272 273 267
3 267 273 114
3 273 33 114
3 274 34 33
3 275 276 274
3 277 278 275
3 279 280 277
3 281 282 279
3 283 284 281
3 24 285 283
3 274 276 34
3 276 142 34
3 275 278 276
3 278 286 276
3 276 286 142
3 286 143 142
3 277 280 278
3 280 287 278
3 278 287 286
3 287 288 286
3 286 288 143
3 288 144 143
3 279 282 280
3 282 289 280
3 280 289 287
3 289 290 287
3 287 290 288
3 290 291 288
3 288 291 144
3 291 145 144
3 281 284 282
3 284 292 282
3 282 292 289
3 292 293 289
3 289 293 290
3 293 294 290
3 290 294 291
3 294 295 291
3 291 295 145
3 295 146 145
3 283 285 284
3 285 296 284
3 284 296 292
3 296 297 292
3 292 297 293
3 297 298 293
3 293 298 294
3 298 299 294
3 294 299 295
3 299 300 295
3 295 300 146
3 300 147 146
3 24 15 285
3 15 301 285
3 285 301 296
3 301 302 296
3 296 302 297
3 302 303 297
3 297 303 298
3 303 304 298
3 298 304 299
3 304 305 299
3 299 305 300
3 305 306 300
3 300 306 147
3 306 30 147
3 307 31 30
3 308 309 307
3 310 311 308
3 312 313 310
3 314 315 312
3 316 317 314
3 23 318 316
3 307 309 31
3 309 175 31
3 308 311 309
3 311 319 309
3 309 319 175
3 319 176 175
3 310 313 311
3 313 320 311
3 311 320 319
3 320 321 319
3 319 321 176
3 321 177 176
3 312 315 313
3 315 322 313
3 313 322 320
3 322 323 320
3 320 323 321
3 323 324 321
3 321 324 177
3 324 178 177
3 314 317 315
3 317 325 315
3 315 325 322
3 325 326 322
3 322 326 323
3 326 327 323
3 323 327 324
3 327 328 324
3 324 328 178
3 328 179 178
3 316 318 317
3 318 329 317
3 317 329 325
3 329 330 325
3 325 330 326
3 330 331 326
3 326 331 327
3 331 332 327
3 327 332 328
3 332 333 328
3 328 333 179
3 333 180 179
3 23 12 318
3 12 334 318
3 318 334 329
3 334 335 329
3 329 335 330
3 335 336 330
3 330 336 331
3 336 337 331
3 331 337 332
3 337 338 332
3 332 338 333
3 338 339 333
3 333 339 180
3 339 27 180
3 340 28 27
3 341 342 340
3 343 344 341
3 345 346 343
3 347 348 345
3 349 350 347
3 22 351 349
3 340 342 28
3 342 202 28
3 341 344 342
3 344 352 342
3 342 352 202
3 352 203 202
3 343 346 344
3 346 353 344
3 344 353 352
3 353 354 352
3 352 354 203
3 354 204 203
3 345 348 346
3 348 355 346
3 346 355 353
3 355 356 353
3 353 356 354
3 356 357 354
3 354 357 204
3 357 205 204
3 347 350 348
3 350 358 348
3 348 358 355
3 358 359 355
3 355 359 356
3 359 360 356
3 356 360 357
3 360 361 357
3 357 361 205
3 361 206 205
3 349 351 350
3 351 362 350
3 350 362 358
3 362 363 358
3 358 363 359
3 363 364 359
3 359 364 360
3 364 365 360
3 360 365 361
3 365 366 361
3 361 366 206
3 366 207 206
3 22 9 351
3 9 367 351
3 351 367 362
3 367 368 362
3 362 368 363
3 368 369 363
3 363 369 364
3 369 370 364
3 364 370 365
3 370 371 365
3 365 371 366
3 371 372 366
3 366 372 207
3 372 39 207
3 240 241 36
3 239 373 240
3 238 374 239
3 237 375 238
3 236 376 237
3 235 377 236
3 21 378 235
3 240 373 241
3 373 242 241
3 239 374 373
3 374 379 373
3 373 379 242
3 379 244 242
3 238 375 374
3 375 380 374
3 374 380 379
3 380 381 379
3 379 381 244
3 381 246 244
3 237 376 375
3 376 382 375
3 375 382 380
3 382 383 380
3 380 383 381
3 383 384 381
3 381 384 246
3 384 248 246
3 236 377 376
3 377 385 376
3 376 385 382
3 385 386 382
3 382 386 383
3 386 387 383
3 383 387 384
3 387 388 384
3 384 388 248
3 388 250 248
3 235 378 377
3 378 389 377
3 377 389 385
3 389 390 385
3 385 390 386
3 390 391 386
3 386 391 387
3 391 392 387
3 387 392 388
3 392 393 388
3 388 393 250
3 393 25 250
3 21 20 378
3 20 394 378
3 378 394 389
3 394 395 389
3 389 395 390
3 395 396 390
3 390 396 391
3 396 397 391
3 391 397 392
3 397 398 392
3 392 398 393
3 398 399 393
3 393 399 25
3 399 16 25
3 273 274 33
3 272 400 273
3 271 401 272
3 270 402 271
3 269 403 270
3 268 404 269
3 18 405 268
3 273 400 274
3 400 275 274
3 272 401 400
3 401 406 400
3 400 406 275
3 406 277 275
3 271 402 401
3 402 407 401
3 401 407 406
3 407 408 406
3 406 408 277
3 408 279 277
3 270 403 402
3 403 409 402
3 402 409 407
3 409 410 407
3 407 410 408
3 410 411 408
3 408 411 279
3 411 281 279
3 269 404 403
3 404 412 403
3 403 412 409
3 412 413 409
3 409 413 410
3 413 414 410
3 410 414 411
3 414 415 411
3 411 415 281
3 415 283 281
3 268 405 404
3 405 416 404
3 404 416 412
3 416 417 412
3 412 417 413
3 417 418 413
3 413 418 414
3 418 419 414
3 414 419 415
3 419 420 415
3 415 420 283
3 420 24 283
3 18 17 405
3 17 421 405
3 405 421 416
3 421 422 416
3 416 422 417
3 422 423 417
3 417 423 418
3 423 424 418
3 418 424 419
3 424 425 419
3 419 425 420
3 425 426 420
3 420 426 24
3 426 13 24
3 306 307 30
3 305 427 306
3 304 428 305
3 303 429 304
3 302 430 303
3 301 431 302
3 15 432 301
3 306 427 307
3 427 308 307
3 305 428 427
3 428 433 427
3 427 433 308
3 433 310 308
3 304 429 428
3 429 434 428
3 428 434 433
3 434 435 433
3 433 435 310
3 435 312 310
3 303 430 429
3 430 436 429
3 429 436 434
3 436 437 434
3 434 437 435
3 437 438 435
3 435 438 312
3 438 314 312
3 302 431 430
3 431 439 430
3 430 439 436
3 439 440 436
3 436 440 437
3 440 441 437
3 437 441 438
3 441 442 438
3 438 442 314
3 442 316 314
3 301 432 431
3 432 443 431
3 431 443 439
3 443 444 439
3 439 444 440
3 444 445 440
3 440 445 441
3 445 446 441
3 441 446 442
3 446 447 442
3 442 447 316
3 447 23 316
3 15 14 432
3 14 448 432
3 432 448 443
3 448 449 443
3 443 449 444
3 449 450 444
3 444 450 445
3 450 451 445
3 445 451 446
3 451 452 446
3 446 452 447
3 452 453 447
3 447 453 23
3 453 10 23
3 339 340 27
3 338 454 339
3 337 455 338
3 336 456 337
3 335 457 336
3 334 458 335
3 12 459 334
3 339 454 340
3 454 341 340
3 338 455 454
3 455 460 454
3 454 460 341
3 460 343 341
3 337 456 455
3 456 461 455
3 455 461 460
3 461 462 460
3 460 462 343
3 462 345 343
3 336 457 456
3 457 463 456
3 456 463 461
3 463 464 461
3 461 464 462
3 464 465 462
3 462 465 345
3 465 347 345
3 335 458 457
3 458 466 457
3 457 466 463
3 466 467 463
3 463 467 464
3 467 468 464
3 464 468 465
3 468 469 465
3 465 469 347
3 469 349 347
3 334 459 458
3 459 470 458
3 458 470 466
3 470 471 466
3 466 471 467
3 471 472 467
3 467 472 468
3 472 473 468
3 468 473 469
3 473 474 469
3 469 474 349
3 474 22 349
3 12 11 459
3 11 475 459
3 459 475 470
3 475 476 470
3 470 476 471
3 476 477 471
3 471 477 472
3 477 478 472
3 472 478 473
3 478 479 473
3 473 479 474
3 479 480 474
3 474 480 22
3 480 3 22
3 372 208 39
3 371 481 372
3 370 482 371
3 369 483 370
3 368 484 369
3 367 485 368
3 9 486 367
3 372 481 208
3 481 209 208
3 371 482 481
3 482 487 481
3 481 487 209
3 487 211 209
3 370 483 482
3 483 488 482
3 482 488 487
3 488 489 487
3 487 489 211
3 489 213 211
3 369 484 483
3 484 490 483
3 483 490 488
3 490 491 488
3 488 491 489
3 491 492 489
3 489 492 213
3 492 215 213
3 368 485 484
3 485 493 484
3 484 493 490
3 493 494 490
3 490 494 491
3 494 495 491
3 491 495 492
3 495 496 492
3 492 496 215
3 496 217 215
3 367 486 485
3 486 497 485
3 485 497 493
3 497 498 493
3 493 498 494
3 498 499 494
3 494 499 495
3 499 500 495
3 495 500 496
3 500 501 496
3 496 501 217
3 501 26 217
3 9 5 486
3 5 502 486
3 486 502 497
3 502 503 497
3 497 503 498
3 503 504 498
3 498 504 499
3 504 505 499
3 499 505 500
3 505 506 500
3 500 506 501
3 506 507 501
3 501 507 26
3 507 19 26
3 508 20 19
3 509 510 508
3 511 512 509
3 513 514 511
3 515 516 513
3 517 518 515
3 8 519 517
3 508 510 20
3 510 394 20
3 509 512 510
3 512 520 510
3 510 520 394
3 520 395 394
3 511 514 512
3 514 521 512
3 512 521 520
3 521 522 520
3 520 522 395
3 522 396 395
3 513 516 514
3 516 523 514
3 514 523 521
3 523 524 521
3 521 524 522
3 524 525 522
3 522 525 396
3 525 397 396
3 515 518 516
3 518 526 516
3 516 526 523
3 526 527 523
3 523 527 524
3 527 528 524
3 524 528 525
3 528 529 525
3 525 529 397
3 529 398 397
3 517 519 518
3 519 530 518
3 518 530 526
3 530 531 526
3 526 531 527
3 531 532 527
3 527 532 528
3 532 533 528
3 528 533 529
3 533 534 529
3 529 534 398
3 534 399 398
3 8 7 519
3 7 535 519
3 519 535 530
3 535 536 530
3 530 536 531
3 536 537 531
3 531 537 532
3 537 538 532
3 532 538 533
3 538 539 533
3 533 539 534
3 539 540 534
3 534 540 399
3 540 16 399
3 540 17 16
3 539 541 540
3 538 542 539
3 537 543 538
3 536 544 537
3 535 545 536
3 7 546 535
3 540 541 17
3 541 421 17
3 539 542 541
3 542 547 541
3 541 547 421
3 547 422 421
3 538 543 542
3 543 548 542
3 542 548 547
3 548 549 547
3 547 549 422
3 549 423 422
3 537 544 543
3 544 550 543
3 543 550 548
3 550 551 548
3 548 551 549
3 551 552 549
3 549 552 423
3 552 424 423
3 536 545 544
3 545 553 544
3 544 553 550
3 553 554 550
3 550 554 551
3 554 555 551
3 551 555 552
3 555 556 552
3 552 556 424
3 556 425 424
3 535 546 545
3 546 557 545
3 545 557 553
3 557 558 553
3 553 558 554
3 558 559 554
3 554 559 555
3 559 560 555
3 555 560 556
3 560 561 556
3 556 561 425
3 561 426 425
3 7 6 546
3 6 562 546
3 546 562 557
3 562 563 557
3 557 563 558
3 563 564 558
3 558 564 559
3 564 565 559
3 559 565 560
3 565 566 560
3 560 566 561
3 566 567 561
3 561 567 426
3 567 13 426
3 567 14 13
3 566 568 567
3 565 569 566
3 564 570 565
3 563 571 564
3 562 572 563
3 6 573 562
3 567 568 14
3 568 448 14
3 566 569 568
3 569 574 568
3 568 574 448
3 574 449 448
3 565 570 569
3 570 575 569
3 569 575 574
3 575 576 574
3 574 576 449
3 576 450 449
3 564 571 570
3 571 577 570
3 570 577 575
3 577 578 575
3 575 578 576
3 578 579 576
3 576 579 450
3 579 451 450
3 563 572 571
3 572 580 571
3 571 580 577
3 580 581 577
3 577 581 578
3 581 582 578
3 578 582 579
3 582 583 579
3 579 583 451
3 583 452 451
3 562 573 572
3 573 584 572
3 572 584 580
3 584 585 580
3 580 585 581
3 585 586 581
3 581 586 582
3 586 587 582
3 582 587 583
3 587 588 583
3 583 588 452
3 588 453 452
3 6 2 573
3 2 589 573
3 573 589 584
3 589 590 584
3 584 590 585
3 590 591 585
3 585 591 586
3 591 592 586
3 586 592 587
3 592 593 587
3 587 593 588
3 593 594 588
3 588 594 453
3 594 10 453
3 507 508 19
3 506 595 507
3 505 596 506
3 504 597 505
3 503 598 504
3 502 599 503
3 5 600 502
3 507 595 508
3 595 509 508
3 506 596 595
3 596 601 595
3 595 601 509
3 601 511 509
3 505 597 596
3 597 602 596
3 596 602 601
3 602 603 601
3 601 603 511
3 603 513 511
3 504 598 597
3 598 604 597
3 597 604 602
3 604 605 602
3 602 605 603
3 605 606 603
3 603 606 513
3 606 515 513
3 503 599 598
3 599 607 598
3 598 607 604
3 607 608 604
3 604 608 605
3 608 609 605
3 605 609 606
3 609 610 606
3 606 610 515
3 610 517 515
3 502 600 599
3 600 611 599
3 599 611 607
3 611 612 607
3 607 612 608
3 612 613 608
3 608 613 609
3 613 614 609
3 609 614 610
3 614 615 610
3 610 615 517
3 615 8 517
3 5 4 600
3 4 616 600
3 600 616 611
3 616 617 611
3 611 617 612
3 617 618 612
3 612 618 613
3 618 619 613
3 613 619 614
3 619 620 614
3 614 620 615
3 620 1 615
3 615 1 8
3 1 0 8
3 594 11 10
3 593 621 594
3 592 622 593
3 591 623 592
3 590 624 591
3 589 625 590
3 2 626 589
3 594 621 11
3 621 475 11
3 593 622 621
3 622 627 621
3 621 627 475
3 627 476 475
3 592 623 622
3 623 628 622
3 622 628 627
3 628 629 627
3 627 629 476
3 629 477 476
3 591 624 623
3 624 630 623
3 623 630 628
3 630 631 628
3 628 631 629
3 631 632 629
3 629 632 477
3 632 478 477
3 590 625 624
3 625 633 624
3 624 633 630
3 633 634 630
3 630 634 631
3 634 635 631
3 631 635 632
3 635 636 632
3 632 636 478
3 636 479 478
3 589 626 625
3 626 637 625
3 625 637 633
3 637 638 633
3 633 638 634
3 638 639 634
3 634 639 635
3 639 640 635
3 635 640 636
3 640 641 636
3 636 641 479
3 641 480 479
3 2 1 626
3 1 620 626
3 626 620 637
3 620 619 637
3 637 619 638
3 619 618 638
3 638 618 639
3 618 617 639
3 639 617 640
3 617 616 640
3 640 616 641
3 616 4 641
3 641 4 480
3 4 3 480
